<?xml version="1.0" encoding="UTF-8"?>
<svg xmlns="http://www.w3.org/2000/svg" xmlns:xlink="http://www.w3.org/1999/xlink" width="365pt" height="224.25pt" viewBox="0 0 365 224.25" version="1.1">
<defs>
<clipPath id="clip1">
  <path d="M 0 200 L 26 200 L 26 224.25 L 0 224.25 Z M 0 200 "/>
</clipPath>
<clipPath id="clip2">
  <path d="M 53 199 L 76 199 L 76 224.25 L 53 224.25 Z M 53 199 "/>
</clipPath>
<clipPath id="clip3">
  <path d="M 89 199 L 114 199 L 114 224.25 L 89 224.25 Z M 89 199 "/>
</clipPath>
<clipPath id="clip4">
  <path d="M 115 200 L 141 200 L 141 224.25 L 115 224.25 Z M 115 200 "/>
</clipPath>
<clipPath id="clip5">
  <path d="M 204 199 L 230 199 L 230 224.25 L 204 224.25 Z M 204 199 "/>
</clipPath>
<clipPath id="clip6">
  <path d="M 252 200 L 279 200 L 279 224.25 L 252 224.25 Z M 252 200 "/>
</clipPath>
<clipPath id="clip7">
  <path d="M 313 200 L 339 200 L 339 224.25 L 313 224.25 Z M 313 200 "/>
</clipPath>
</defs>
<g id="surface1">
<path style=" stroke:none;fill-rule:nonzero;fill:rgb(5.899048%,48.599243%,75.698853%);fill-opacity:1;" d="M 145.605469 47.511719 L 156.117188 47.511719 L 156.117188 99.644531 L 145.605469 99.644531 L 145.605469 47.511719 "/>
<path style=" stroke:none;fill-rule:nonzero;fill:rgb(5.899048%,48.599243%,75.698853%);fill-opacity:1;" d="M 143.269531 111.78125 L 143.269531 103.910156 L 221.730469 103.910156 L 221.730469 111.78125 L 143.269531 111.78125 "/>
<path style=" stroke:none;fill-rule:nonzero;fill:rgb(5.899048%,48.599243%,75.698853%);fill-opacity:1;" d="M 166.683594 47.511719 L 177.191406 47.511719 L 177.191406 99.644531 L 166.683594 99.644531 L 166.683594 47.511719 "/>
<path style=" stroke:none;fill-rule:nonzero;fill:rgb(5.899048%,48.599243%,75.698853%);fill-opacity:1;" d="M 187.816406 47.511719 L 198.328125 47.511719 L 198.328125 99.644531 L 187.816406 99.644531 L 187.816406 47.511719 "/>
<path style=" stroke:none;fill-rule:nonzero;fill:rgb(5.899048%,48.599243%,75.698853%);fill-opacity:1;" d="M 208.671875 47.511719 L 219.179688 47.511719 L 219.179688 99.644531 L 208.671875 99.644531 L 208.671875 47.511719 "/>
<path style=" stroke:none;fill-rule:nonzero;fill:rgb(5.899048%,48.599243%,75.698853%);fill-opacity:1;" d="M 138.515625 123.691406 L 138.515625 115.824219 L 226.863281 115.824219 L 226.863281 123.691406 L 138.515625 123.691406 "/>
<path style=" stroke:none;fill-rule:nonzero;fill:rgb(5.899048%,48.599243%,75.698853%);fill-opacity:1;" d="M 182.5 145.703125 C 145.34375 145.703125 115.214844 115.570313 115.214844 78.414063 C 115.214844 41.257813 145.34375 11.125 182.5 11.125 C 219.65625 11.125 249.785156 41.257813 249.785156 78.414063 C 249.785156 115.570313 219.65625 145.703125 182.5 145.703125 Z M 182.5 0.00390625 C 139.199219 0.00390625 104.089844 35.113281 104.089844 78.410156 C 104.089844 121.710938 139.199219 156.824219 182.5 156.824219 C 225.796875 156.824219 260.910156 121.710938 260.910156 78.410156 C 260.910156 35.113281 225.796875 0.00390625 182.5 0.00390625 "/>
<path style=" stroke:none;fill-rule:nonzero;fill:rgb(5.899048%,48.599243%,75.698853%);fill-opacity:1;" d="M 69.367188 178.9375 C 71.226563 178.9375 72.664063 178.566406 73.667969 177.808594 C 74.675781 177.066406 75.183594 175.980469 75.183594 174.566406 C 75.183594 173.257813 74.800781 172.210938 74.027344 171.429688 C 73.25 170.640625 72.191406 170.148438 70.855469 169.929688 C 69.429688 169.867188 68.59375 169.835938 68.351563 169.835938 C 67.613281 169.835938 67.09375 169.902344 66.800781 170.050781 C 66.507813 170.199219 66.363281 170.492188 66.363281 170.925781 L 66.363281 178.9375 Z M 66.363281 188.769531 C 66.363281 189.4375 66.550781 189.921875 66.933594 190.210938 C 67.320313 190.503906 68.128906 190.648438 69.367188 190.648438 C 71.449219 190.648438 73.082031 190.261719 74.246094 189.480469 C 75.414063 188.699219 75.992188 187.339844 75.992188 185.386719 C 75.992188 182.023438 73.390625 180.34375 68.191406 180.34375 L 66.363281 180.34375 Z M 62.632813 171.292969 C 62.632813 169.835938 61.476563 169.105469 59.148438 169.105469 L 59.148438 168.480469 L 68.882813 168.480469 C 75.546875 168.480469 78.878906 170.476563 78.878906 174.464844 C 78.878906 177.144531 77.277344 178.835938 74.0625 179.5625 L 74.0625 179.605469 C 75.78125 179.917969 77.222656 180.566406 78.371094 181.566406 C 79.519531 182.5625 80.101563 183.871094 80.101563 185.492188 C 80.101563 187.574219 79.253906 189.167969 77.558594 190.277344 C 75.867188 191.386719 73.5625 191.941406 70.640625 191.941406 L 59.148438 191.941406 L 59.148438 191.273438 C 61.476563 191.273438 62.632813 190.546875 62.632813 189.089844 L 62.632813 171.292969 "/>
<path style=" stroke:none;fill-rule:nonzero;fill:rgb(5.899048%,48.599243%,75.698853%);fill-opacity:1;" d="M 90.628906 182.832031 L 99.125 182.832031 L 94.859375 173.058594 Z M 105.058594 187.773438 C 105.609375 188.996094 106.089844 189.878906 106.519531 190.433594 C 106.9375 190.988281 107.605469 191.265625 108.53125 191.265625 L 108.53125 191.941406 L 99.242188 191.941406 L 99.242188 191.265625 C 100.1875 191.214844 100.855469 191.109375 101.226563 190.9375 C 101.609375 190.769531 101.800781 190.484375 101.800781 190.078125 C 101.800781 189.695313 101.496094 188.769531 100.898438 187.304688 L 99.605469 184.292969 L 89.988281 184.292969 C 89.96875 184.347656 89.648438 185.144531 89.015625 186.6875 C 88.382813 188.230469 88.074219 189.253906 88.074219 189.757813 C 88.074219 190.761719 88.890625 191.265625 90.523438 191.265625 L 90.523438 191.941406 L 83.308594 191.941406 L 83.308594 191.265625 C 84.3125 191.167969 85.105469 190.667969 85.683594 189.78125 C 86.265625 188.890625 87.054688 187.320313 88.074219 185.066406 L 95.449219 167.960938 L 96.1875 167.960938 L 105.058594 187.773438 "/>
<path style=" stroke:none;fill-rule:nonzero;fill:rgb(5.899048%,48.599243%,75.698853%);fill-opacity:1;" d="M 131.40625 192.410156 L 130.816406 192.410156 L 114.625 172.902344 L 114.625 189.082031 C 114.625 190.535156 115.800781 191.265625 118.152344 191.265625 L 118.152344 191.941406 L 109.503906 191.941406 L 109.503906 191.265625 C 111.882813 191.265625 113.074219 190.535156 113.074219 189.082031 L 113.074219 171.082031 L 112.765625 170.71875 C 112.121094 170.03125 111.632813 169.601563 111.296875 169.417969 C 110.957031 169.234375 110.359375 169.132813 109.503906 169.105469 L 109.503906 168.480469 L 115.746094 168.480469 L 129.75 185.492188 L 129.75 171.289063 C 129.75 169.835938 128.574219 169.105469 126.222656 169.105469 L 126.222656 168.480469 L 134.933594 168.480469 L 134.933594 169.105469 C 132.582031 169.105469 131.40625 169.835938 131.40625 171.289063 L 131.40625 192.410156 "/>
<path style=" stroke:none;fill-rule:nonzero;fill:rgb(5.899048%,48.599243%,75.698853%);fill-opacity:1;" d="M 158.128906 175.980469 L 157.316406 175.980469 C 156.960938 174.65625 156.425781 173.5 155.703125 172.503906 C 154.984375 171.507813 154.082031 170.734375 153.011719 170.179688 C 151.945313 169.636719 150.726563 169.359375 149.363281 169.359375 C 146.503906 169.359375 144.367188 170.378906 142.949219 172.417969 C 141.53125 174.457031 140.820313 177.167969 140.820313 180.539063 C 140.820313 182.273438 141.132813 183.929688 141.757813 185.507813 C 142.390625 187.078125 143.359375 188.363281 144.667969 189.359375 C 145.976563 190.347656 147.582031 190.839844 149.46875 190.839844 C 151.195313 190.839844 152.71875 190.554688 154.046875 189.992188 C 155.375 189.417969 156.683594 188.527344 157.964844 187.292969 L 158.605469 187.980469 C 157.492188 189.316406 156.058594 190.382813 154.3125 191.195313 C 152.570313 192.003906 150.832031 192.410156 149.09375 192.410156 C 146.707031 192.410156 144.5625 191.933594 142.65625 190.972656 C 140.75 190.007813 139.253906 188.605469 138.167969 186.765625 C 137.078125 184.917969 136.535156 182.742188 136.535156 180.230469 C 136.535156 178.480469 136.839844 176.847656 137.453125 175.355469 C 138.058594 173.859375 138.925781 172.546875 140.054688 171.4375 C 141.183594 170.320313 142.511719 169.460938 144.035156 168.863281 C 145.558594 168.265625 147.222656 167.960938 149.050781 167.960938 C 150.03125 167.960938 150.839844 168.039063 151.472656 168.1875 C 152.105469 168.335938 152.863281 168.550781 153.742188 168.828125 C 154.636719 169.113281 155.230469 169.253906 155.550781 169.253906 C 156.183594 169.253906 156.683594 168.828125 157.058594 167.960938 L 157.796875 167.960938 L 158.128906 175.980469 "/>
<path style=" stroke:none;fill-rule:nonzero;fill:rgb(5.899048%,48.599243%,75.698853%);fill-opacity:1;" d="M 165.136719 180.1875 C 165.136719 183.636719 165.847656 186.332031 167.273438 188.265625 C 168.699219 190.199219 170.589844 191.167969 172.9375 191.167969 C 175.699219 190.953125 177.6875 189.738281 178.90625 187.535156 C 180.128906 185.335938 180.730469 182.882813 180.730469 180.1875 C 180.730469 178.234375 180.464844 176.433594 179.921875 174.757813 C 179.386719 173.09375 178.53125 171.75 177.367188 170.734375 C 176.191406 169.722656 174.71875 169.210938 172.9375 169.210938 C 167.738281 169.609375 165.136719 173.265625 165.136719 180.1875 Z M 184.792969 180.175781 C 184.792969 181.902344 184.519531 183.496094 183.976563 184.972656 C 183.429688 186.4375 182.636719 187.738281 181.589844 188.863281 C 180.535156 189.992188 179.273438 190.867188 177.800781 191.480469 C 176.332031 192.097656 174.710938 192.410156 172.9375 192.410156 C 171.328125 192.410156 169.792969 192.132813 168.351563 191.570313 C 166.898438 191.007813 165.617188 190.183594 164.484375 189.105469 C 163.363281 188.03125 162.484375 186.730469 161.851563 185.207031 C 161.21875 183.667969 160.90625 181.996094 160.90625 180.175781 C 160.90625 177.894531 161.402344 175.816406 162.402344 173.953125 C 163.398438 172.082031 164.808594 170.613281 166.632813 169.558594 C 168.460938 168.492188 170.558594 167.960938 172.9375 167.960938 C 175.121094 167.960938 177.117188 168.472656 178.925781 169.488281 C 180.730469 170.5 182.167969 171.941406 183.21875 173.804688 C 184.265625 175.667969 184.792969 177.792969 184.792969 180.175781 "/>
<path style=" stroke:none;fill-rule:nonzero;fill:rgb(5.899048%,48.599243%,75.698853%);fill-opacity:1;" d="M 205.425781 188.761719 C 205.425781 189.90625 206.011719 190.476563 207.1875 190.476563 C 209.734375 190.476563 211.890625 190.070313 213.644531 189.261719 C 215.398438 188.457031 216.726563 187.285156 217.617188 185.753906 C 218.5 184.21875 218.945313 182.398438 218.945313 180.28125 C 218.945313 178.019531 218.472656 176.09375 217.527344 174.515625 C 216.585938 172.9375 215.25 171.75 213.527344 170.960938 C 211.808594 170.171875 209.816406 169.773438 207.5625 169.773438 C 206.625 169.773438 206.027344 169.867188 205.789063 170.050781 C 205.550781 170.242188 205.425781 170.734375 205.425781 171.542969 Z M 198.527344 191.941406 L 198.527344 191.265625 C 200.632813 191.265625 201.683594 190.539063 201.683594 189.082031 L 201.683594 171.292969 C 201.683594 169.835938 200.632813 169.105469 198.527344 169.105469 L 198.527344 168.480469 L 207.933594 168.480469 C 211.0625 168.480469 213.753906 168.914063 215.988281 169.773438 C 218.230469 170.640625 219.941406 171.949219 221.125 173.703125 C 222.3125 175.453125 222.898438 177.628906 222.898438 180.230469 C 222.898438 183.914063 221.652344 186.785156 219.15625 188.847656 C 216.65625 190.910156 213.011719 191.941406 208.203125 191.941406 L 198.527344 191.941406 "/>
<path style=" stroke:none;fill-rule:nonzero;fill:rgb(5.899048%,48.599243%,75.698853%);fill-opacity:1;" d="M 224.511719 191.941406 L 224.511719 191.265625 C 226.648438 191.265625 227.71875 190.539063 227.71875 189.082031 L 227.71875 171.292969 C 227.71875 169.835938 226.648438 169.105469 224.511719 169.105469 L 224.511719 168.480469 L 243.910156 168.480469 L 243.910156 173.519531 L 243.101563 173.519531 C 242.554688 171.09375 241.164063 169.878906 238.941406 169.878906 L 233.054688 169.878906 C 231.984375 169.878906 231.449219 170.347656 231.449219 171.292969 L 231.449219 178.886719 L 236.582031 178.886719 C 237.988281 178.886719 239.101563 178.644531 239.910156 178.15625 C 240.722656 177.679688 241.132813 176.796875 241.132813 175.503906 L 241.871094 175.503906 L 241.871094 183.828125 L 241.132813 183.828125 C 241.132813 181.511719 239.617188 180.351563 236.582031 180.351563 L 231.449219 180.351563 L 231.449219 189.082031 C 231.449219 190.007813 231.753906 190.476563 232.367188 190.476563 L 237.230469 190.476563 C 238.496094 190.476563 239.535156 190.398438 240.347656 190.25 C 241.15625 190.105469 241.953125 189.707031 242.734375 189.039063 C 243.519531 188.378906 244.203125 187.355469 244.808594 185.960938 L 245.824219 185.960938 L 244.222656 191.941406 L 224.511719 191.941406 "/>
<path style=" stroke:none;fill-rule:nonzero;fill:rgb(5.899048%,48.599243%,75.698853%);fill-opacity:1;" d="M 258.550781 191.941406 L 258.550781 191.265625 C 260.6875 191.265625 261.757813 190.539063 261.757813 189.082031 L 261.757813 171.292969 C 261.757813 169.835938 260.6875 169.105469 258.550781 169.105469 L 258.550781 168.480469 L 268.652344 168.480469 L 268.652344 169.105469 C 266.539063 169.105469 265.488281 169.835938 265.488281 171.292969 L 265.488281 189.082031 C 265.488281 190.007813 266.703125 190.476563 269.132813 190.476563 C 271.144531 190.476563 272.714844 190.390625 273.835938 190.226563 C 274.949219 190.054688 275.945313 189.628906 276.808594 188.953125 C 277.683594 188.273438 278.414063 187.210938 279.019531 185.753906 L 279.917969 185.753906 L 278.15625 191.941406 L 258.550781 191.941406 "/>
<path style=" stroke:none;fill-rule:nonzero;fill:rgb(5.899048%,48.599243%,75.698853%);fill-opacity:1;" d="M 288.257813 182.832031 L 296.753906 182.832031 L 292.488281 173.058594 Z M 302.6875 187.773438 C 303.238281 188.996094 303.71875 189.878906 304.148438 190.433594 C 304.566406 190.988281 305.234375 191.265625 306.160156 191.265625 L 306.160156 191.941406 L 296.867188 191.941406 L 296.867188 191.265625 C 297.816406 191.214844 298.484375 191.109375 298.855469 190.9375 C 299.238281 190.769531 299.425781 190.484375 299.425781 190.078125 C 299.425781 189.695313 299.121094 188.769531 298.527344 187.304688 L 297.234375 184.292969 L 287.613281 184.292969 C 287.597656 184.347656 287.277344 185.144531 286.644531 186.6875 C 286.011719 188.230469 285.699219 189.253906 285.699219 189.757813 C 285.699219 190.761719 286.519531 191.265625 288.148438 191.265625 L 288.148438 191.941406 L 280.9375 191.941406 L 280.9375 191.265625 C 281.941406 191.167969 282.734375 190.667969 283.3125 189.78125 C 283.894531 188.890625 284.683594 187.320313 285.699219 185.066406 L 293.074219 167.960938 L 293.8125 167.960938 L 302.6875 187.773438 "/>
<g clip-path="url(#clip1)" clip-rule="nonzero">
<path style=" stroke:none;fill-rule:nonzero;fill:rgb(5.899048%,48.599243%,75.698853%);fill-opacity:1;" d="M 21.902344 224.25 L 21.3125 224.25 L 5.121094 204.742188 L 5.121094 220.921875 C 5.121094 222.375 6.296875 223.105469 8.648438 223.105469 L 8.648438 223.78125 L 0 223.78125 L 0 223.105469 C 2.378906 223.105469 3.570313 222.375 3.570313 220.921875 L 3.570313 202.921875 L 3.261719 202.558594 C 2.617188 201.875 2.128906 201.441406 1.789063 201.257813 C 1.453125 201.078125 0.855469 200.972656 0 200.945313 L 0 200.320313 L 6.242188 200.320313 L 20.246094 217.332031 L 20.246094 203.132813 C 20.246094 201.671875 19.070313 200.945313 16.71875 200.945313 L 16.71875 200.320313 L 25.429688 200.320313 L 25.429688 200.945313 C 23.078125 200.945313 21.902344 201.671875 21.902344 203.132813 L 21.902344 224.25 "/>
</g>
<path style=" stroke:none;fill-rule:nonzero;fill:rgb(5.899048%,48.599243%,75.698853%);fill-opacity:1;" d="M 33.710938 214.667969 L 42.207031 214.667969 L 37.945313 204.898438 Z M 48.140625 219.613281 C 48.695313 220.835938 49.171875 221.71875 49.601563 222.273438 C 50.019531 222.828125 50.6875 223.105469 51.613281 223.105469 L 51.613281 223.78125 L 42.324219 223.78125 L 42.324219 223.105469 C 43.269531 223.054688 43.9375 222.949219 44.308594 222.777344 C 44.695313 222.613281 44.882813 222.328125 44.882813 221.917969 C 44.882813 221.539063 44.578125 220.609375 43.980469 219.144531 L 42.691406 216.136719 L 33.070313 216.136719 C 33.054688 216.1875 32.730469 216.984375 32.097656 218.527344 C 31.464844 220.070313 31.15625 221.09375 31.15625 221.597656 C 31.15625 222.601563 31.972656 223.105469 33.605469 223.105469 L 33.605469 223.78125 L 26.390625 223.78125 L 26.390625 223.105469 C 27.394531 223.011719 28.191406 222.507813 28.769531 221.625 C 29.347656 220.730469 30.140625 219.164063 31.15625 216.90625 L 38.53125 199.800781 L 39.269531 199.800781 L 48.140625 219.613281 "/>
<g clip-path="url(#clip2)" clip-rule="nonzero">
<path style=" stroke:none;fill-rule:nonzero;fill:rgb(5.899048%,48.599243%,75.698853%);fill-opacity:1;" d="M 74.914063 207.820313 L 74.105469 207.820313 C 73.75 206.496094 73.214844 205.34375 72.492188 204.34375 C 71.773438 203.347656 70.871094 202.578125 69.800781 202.019531 C 68.734375 201.476563 67.515625 201.199219 66.152344 201.199219 C 63.292969 201.199219 61.15625 202.222656 59.738281 204.257813 C 58.320313 206.292969 57.609375 209.007813 57.609375 212.382813 C 57.609375 214.117188 57.921875 215.769531 58.542969 217.347656 C 59.175781 218.917969 60.148438 220.203125 61.457031 221.199219 C 62.765625 222.1875 64.371094 222.683594 66.257813 222.683594 C 67.984375 222.683594 69.507813 222.394531 70.835938 221.832031 C 72.164063 221.261719 73.472656 220.367188 74.753906 219.136719 L 75.398438 219.820313 C 74.28125 221.15625 72.847656 222.222656 71.101563 223.039063 C 69.359375 223.84375 67.621094 224.25 65.882813 224.25 C 63.496094 224.25 61.351563 223.773438 59.445313 222.8125 C 57.539063 221.847656 56.042969 220.445313 54.957031 218.605469 C 53.867188 216.761719 53.324219 214.582031 53.324219 212.070313 C 53.324219 210.320313 53.628906 208.6875 54.242188 207.195313 C 54.847656 205.699219 55.714844 204.386719 56.84375 203.277344 C 57.972656 202.160156 59.300781 201.300781 60.824219 200.703125 C 62.347656 200.105469 64.011719 199.800781 65.839844 199.800781 C 66.820313 199.800781 67.628906 199.878906 68.261719 200.027344 C 68.894531 200.175781 69.652344 200.390625 70.53125 200.667969 C 71.425781 200.957031 72.019531 201.09375 72.339844 201.09375 C 72.972656 201.09375 73.472656 200.667969 73.847656 199.800781 L 74.585938 199.800781 L 74.914063 207.820313 "/>
</g>
<path style=" stroke:none;fill-rule:nonzero;fill:rgb(5.899048%,48.599243%,75.698853%);fill-opacity:1;" d="M 84.480469 220.921875 C 84.480469 222.375 85.65625 223.105469 88.019531 223.105469 L 88.019531 223.78125 L 77.214844 223.78125 L 77.214844 223.105469 C 79.574219 223.105469 80.75 222.375 80.75 220.921875 L 80.75 203.132813 C 80.75 201.671875 79.574219 200.945313 77.214844 200.945313 L 77.214844 200.320313 L 88.019531 200.320313 L 88.019531 200.945313 C 85.65625 200.945313 84.480469 201.671875 84.480469 203.132813 L 84.480469 220.921875 "/>
<g clip-path="url(#clip3)" clip-rule="nonzero">
<path style=" stroke:none;fill-rule:nonzero;fill:rgb(5.899048%,48.599243%,75.698853%);fill-opacity:1;" d="M 94.054688 212.027344 C 94.054688 215.476563 94.769531 218.171875 96.195313 220.105469 C 97.621094 222.039063 99.507813 223.011719 101.859375 223.011719 C 104.621094 222.792969 106.605469 221.582031 107.828125 219.375 C 109.046875 217.175781 109.652344 214.722656 109.652344 212.027344 C 109.652344 210.074219 109.386719 208.273438 108.84375 206.597656 C 108.308594 204.933594 107.453125 203.589844 106.285156 202.574219 C 105.109375 201.5625 103.640625 201.050781 101.859375 201.050781 C 96.660156 201.449219 94.054688 205.105469 94.054688 212.027344 Z M 113.714844 212.015625 C 113.714844 213.742188 113.4375 215.335938 112.898438 216.8125 C 112.351563 218.277344 111.558594 219.578125 110.507813 220.703125 C 109.457031 221.832031 108.191406 222.707031 106.722656 223.324219 C 105.253906 223.9375 103.632813 224.25 101.859375 224.25 C 100.246094 224.25 98.714844 223.972656 97.273438 223.410156 C 95.820313 222.847656 94.539063 222.023438 93.40625 220.949219 C 92.285156 219.875 91.402344 218.570313 90.769531 217.046875 C 90.136719 215.511719 89.828125 213.839844 89.828125 212.015625 C 89.828125 209.738281 90.324219 207.65625 91.324219 205.792969 C 92.320313 203.917969 93.726563 202.453125 95.554688 201.398438 C 97.378906 200.332031 99.480469 199.800781 101.859375 199.800781 C 104.042969 199.800781 106.035156 200.3125 107.84375 201.328125 C 109.652344 202.34375 111.089844 203.78125 112.136719 205.644531 C 113.1875 207.507813 113.714844 209.632813 113.714844 212.015625 "/>
</g>
<g clip-path="url(#clip4)" clip-rule="nonzero">
<path style=" stroke:none;fill-rule:nonzero;fill:rgb(5.899048%,48.599243%,75.698853%);fill-opacity:1;" d="M 137.285156 224.25 L 136.695313 224.25 L 120.503906 204.742188 L 120.503906 220.921875 C 120.503906 222.375 121.679688 223.105469 124.027344 223.105469 L 124.027344 223.78125 L 115.382813 223.78125 L 115.382813 223.105469 C 117.761719 223.105469 118.953125 222.375 118.953125 220.921875 L 118.953125 202.921875 L 118.640625 202.558594 C 118 201.875 117.507813 201.441406 117.171875 201.257813 C 116.835938 201.078125 116.238281 200.972656 115.382813 200.945313 L 115.382813 200.320313 L 121.625 200.320313 L 135.628906 217.332031 L 135.628906 203.132813 C 135.628906 201.671875 134.453125 200.945313 132.101563 200.945313 L 132.101563 200.320313 L 140.8125 200.320313 L 140.8125 200.945313 C 138.460938 200.945313 137.285156 201.671875 137.285156 203.132813 L 137.285156 224.25 "/>
</g>
<path style=" stroke:none;fill-rule:nonzero;fill:rgb(5.899048%,48.599243%,75.698853%);fill-opacity:1;" d="M 160.851563 214.667969 L 169.347656 214.667969 L 165.085938 204.898438 Z M 175.28125 219.613281 C 175.835938 220.835938 176.3125 221.71875 176.742188 222.273438 C 177.160156 222.828125 177.828125 223.105469 178.753906 223.105469 L 178.753906 223.78125 L 169.464844 223.78125 L 169.464844 223.105469 C 170.410156 223.054688 171.078125 222.949219 171.449219 222.777344 C 171.832031 222.613281 172.023438 222.328125 172.023438 221.917969 C 172.023438 221.539063 171.71875 220.609375 171.121094 219.144531 L 169.828125 216.136719 L 160.210938 216.136719 C 160.191406 216.1875 159.871094 216.984375 159.238281 218.527344 C 158.605469 220.070313 158.296875 221.09375 158.296875 221.597656 C 158.296875 222.601563 159.113281 223.105469 160.746094 223.105469 L 160.746094 223.78125 L 153.53125 223.78125 L 153.53125 223.105469 C 154.535156 223.011719 155.328125 222.507813 155.90625 221.625 C 156.488281 220.730469 157.277344 219.164063 158.296875 216.90625 L 165.671875 199.800781 L 166.410156 199.800781 L 175.28125 219.613281 "/>
<path style=" stroke:none;fill-rule:nonzero;fill:rgb(5.899048%,48.599243%,75.698853%);fill-opacity:1;" d="M 186.503906 211.609375 C 189.398438 211.515625 191.554688 211.097656 192.953125 210.359375 C 194.351563 209.613281 195.054688 208.332031 195.054688 206.503906 C 195.054688 204.847656 194.53125 203.613281 193.46875 202.808594 C 192.410156 202.011719 191.003906 201.613281 189.230469 201.613281 C 188.339844 201.613281 187.722656 201.640625 187.386719 201.691406 C 187.050781 201.742188 186.816406 201.871094 186.691406 202.089844 C 186.566406 202.308594 186.503906 202.707031 186.503906 203.277344 Z M 182.808594 203.132813 C 182.808594 201.671875 181.777344 200.945313 179.71875 200.945313 L 179.71875 200.320313 L 189.335938 200.320313 C 192.429688 200.320313 194.824219 200.832031 196.523438 201.855469 C 198.226563 202.878906 199.070313 204.414063 199.070313 206.453125 C 199.070313 208.226563 198.457031 209.597656 197.230469 210.578125 C 196 211.546875 194.421875 212.191406 192.496094 212.484375 L 199.660156 221.121094 C 200.222656 221.796875 200.757813 222.28125 201.253906 222.574219 C 201.761719 222.878906 202.386719 223.054688 203.132813 223.105469 L 203.132813 223.78125 L 197.246094 223.78125 L 188.597656 212.859375 L 186.503906 212.902344 L 186.503906 220.921875 C 186.503906 222.375 187.589844 223.105469 189.765625 223.105469 L 189.765625 223.78125 L 179.71875 223.78125 L 179.71875 223.105469 C 181.777344 223.105469 182.808594 222.375 182.808594 220.921875 L 182.808594 203.132813 "/>
<g clip-path="url(#clip5)" clip-rule="nonzero">
<path style=" stroke:none;fill-rule:nonzero;fill:rgb(5.899048%,48.599243%,75.698853%);fill-opacity:1;" d="M 226.433594 207.292969 L 225.625 207.292969 C 224.101563 203.226563 221.394531 201.199219 217.5 201.199219 C 215.550781 201.199219 213.929688 201.683594 212.628906 202.660156 C 211.335938 203.640625 210.375 204.976563 209.761719 206.660156 C 209.144531 208.339844 208.835938 210.246094 208.835938 212.382813 C 208.835938 215.285156 209.644531 217.75 211.265625 219.761719 C 212.878906 221.78125 215.160156 222.785156 218.089844 222.785156 C 219.78125 222.785156 221.136719 222.523438 222.148438 222.015625 C 222.664063 221.769531 222.976563 221.5625 223.074219 221.390625 C 223.175781 221.207031 223.21875 220.84375 223.21875 220.296875 L 223.21875 214.988281 C 223.21875 214.175781 223.15625 213.5625 223.03125 213.144531 C 222.914063 212.71875 222.632813 212.398438 222.175781 212.164063 C 221.722656 211.929688 221.019531 211.808594 220.066406 211.808594 L 220.066406 211.140625 L 229.363281 211.140625 L 229.363281 211.808594 C 228.253906 211.835938 227.546875 212.085938 227.253906 212.546875 C 226.960938 213.015625 226.808594 213.828125 226.808594 214.988281 L 226.808594 221.742188 C 225.625 222.375 224.144531 222.957031 222.355469 223.46875 C 220.574219 223.988281 218.96875 224.25 217.554688 224.25 C 215.40625 224.25 213.339844 223.800781 211.371094 222.90625 C 209.394531 222.003906 207.78125 220.636719 206.542969 218.789063 C 205.296875 216.941406 204.675781 214.707031 204.675781 212.070313 C 204.675781 209.761719 205.210938 207.671875 206.269531 205.800781 C 207.339844 203.9375 208.824219 202.472656 210.742188 201.40625 C 212.648438 200.339844 214.777344 199.800781 217.125 199.800781 C 218.304688 199.800781 219.628906 199.992188 221.117188 200.375 C 222.605469 200.753906 223.503906 200.945313 223.804688 200.945313 C 224.554688 200.945313 225.070313 200.566406 225.359375 199.800781 L 226.105469 199.800781 L 226.433594 207.292969 "/>
</g>
<path style=" stroke:none;fill-rule:nonzero;fill:rgb(5.899048%,48.599243%,75.698853%);fill-opacity:1;" d="M 230.390625 223.78125 L 230.390625 223.105469 C 232.527344 223.105469 233.597656 222.375 233.597656 220.921875 L 233.597656 203.132813 C 233.597656 201.671875 232.527344 200.945313 230.390625 200.945313 L 230.390625 200.320313 L 249.789063 200.320313 L 249.789063 205.359375 L 248.980469 205.359375 C 248.433594 202.933594 247.042969 201.71875 244.816406 201.71875 L 238.929688 201.71875 C 237.863281 201.71875 237.328125 202.1875 237.328125 203.132813 L 237.328125 210.726563 L 242.460938 210.726563 C 243.867188 210.726563 244.980469 210.480469 245.789063 209.996094 C 246.601563 209.519531 247.011719 208.636719 247.011719 207.34375 L 247.75 207.34375 L 247.75 215.667969 L 247.011719 215.667969 C 247.011719 213.351563 245.496094 212.191406 242.460938 212.191406 L 237.328125 212.191406 L 237.328125 220.921875 C 237.328125 221.847656 237.632813 222.316406 238.246094 222.316406 L 243.109375 222.316406 C 244.371094 222.316406 245.414063 222.238281 246.226563 222.089844 C 247.035156 221.941406 247.828125 221.546875 248.613281 220.875 C 249.398438 220.21875 250.082031 219.195313 250.6875 217.800781 L 251.703125 217.800781 L 250.097656 223.78125 L 230.390625 223.78125 "/>
<g clip-path="url(#clip6)" clip-rule="nonzero">
<path style=" stroke:none;fill-rule:nonzero;fill:rgb(5.899048%,48.599243%,75.698853%);fill-opacity:1;" d="M 274.574219 224.25 L 273.988281 224.25 L 257.796875 204.742188 L 257.796875 220.921875 C 257.796875 222.375 258.972656 223.105469 261.320313 223.105469 L 261.320313 223.78125 L 252.675781 223.78125 L 252.675781 223.105469 C 255.050781 223.105469 256.246094 222.375 256.246094 220.921875 L 256.246094 202.921875 L 255.933594 202.558594 C 255.292969 201.875 254.800781 201.441406 254.464844 201.257813 C 254.125 201.078125 253.53125 200.972656 252.675781 200.945313 L 252.675781 200.320313 L 258.917969 200.320313 L 272.917969 217.332031 L 272.917969 203.132813 C 272.917969 201.671875 271.742188 200.945313 269.394531 200.945313 L 269.394531 200.320313 L 278.101563 200.320313 L 278.101563 200.945313 C 275.753906 200.945313 274.574219 201.671875 274.574219 203.132813 L 274.574219 224.25 "/>
</g>
<path style=" stroke:none;fill-rule:nonzero;fill:rgb(5.899048%,48.599243%,75.698853%);fill-opacity:1;" d="M 294.726563 223.78125 L 284.582031 223.78125 L 284.582031 223.105469 C 286.71875 223.105469 287.785156 222.375 287.785156 220.921875 L 287.785156 201.777344 L 285.160156 201.777344 C 284.027344 201.777344 283.171875 201.847656 282.574219 201.992188 C 281.988281 202.140625 281.460938 202.539063 281.019531 203.191406 C 280.570313 203.851563 280.222656 204.890625 279.984375 206.3125 L 279.066406 206.3125 L 279.324219 200.320313 L 299.953125 200.320313 L 300.175781 206.3125 L 299.265625 206.3125 C 299.027344 204.882813 298.691406 203.839844 298.253906 203.191406 C 297.808594 202.53125 297.289063 202.140625 296.691406 201.992188 C 296.105469 201.847656 295.25 201.777344 294.136719 201.777344 L 291.519531 201.777344 L 291.519531 220.921875 C 291.519531 222.375 292.589844 223.105469 294.726563 223.105469 L 294.726563 223.78125 "/>
<path style=" stroke:none;fill-rule:nonzero;fill:rgb(5.899048%,48.599243%,75.698853%);fill-opacity:1;" d="M 308.777344 220.921875 C 308.777344 222.375 309.953125 223.105469 312.316406 223.105469 L 312.316406 223.78125 L 301.511719 223.78125 L 301.511719 223.105469 C 303.871094 223.105469 305.046875 222.375 305.046875 220.921875 L 305.046875 203.132813 C 305.046875 201.671875 303.871094 200.945313 301.511719 200.945313 L 301.511719 200.320313 L 312.316406 200.320313 L 312.316406 200.945313 C 309.953125 200.945313 308.777344 201.671875 308.777344 203.132813 L 308.777344 220.921875 "/>
<g clip-path="url(#clip7)" clip-rule="nonzero">
<path style=" stroke:none;fill-rule:nonzero;fill:rgb(5.899048%,48.599243%,75.698853%);fill-opacity:1;" d="M 335.285156 224.25 L 334.699219 224.25 L 318.503906 204.742188 L 318.503906 220.921875 C 318.503906 222.375 319.679688 223.105469 322.03125 223.105469 L 322.03125 223.78125 L 313.382813 223.78125 L 313.382813 223.105469 C 315.761719 223.105469 316.953125 222.375 316.953125 220.921875 L 316.953125 202.921875 L 316.644531 202.558594 C 316.003906 201.875 315.511719 201.441406 315.175781 201.257813 C 314.835938 201.078125 314.238281 200.972656 313.382813 200.945313 L 313.382813 200.320313 L 319.628906 200.320313 L 333.628906 217.332031 L 333.628906 203.132813 C 333.628906 201.671875 332.453125 200.945313 330.101563 200.945313 L 330.101563 200.320313 L 338.8125 200.320313 L 338.8125 200.945313 C 336.460938 200.945313 335.285156 201.671875 335.285156 203.132813 L 335.285156 224.25 "/>
</g>
<path style=" stroke:none;fill-rule:nonzero;fill:rgb(5.899048%,48.599243%,75.698853%);fill-opacity:1;" d="M 347.097656 214.667969 L 355.59375 214.667969 L 351.328125 204.898438 Z M 361.523438 219.613281 C 362.078125 220.835938 362.558594 221.71875 362.988281 222.273438 C 363.40625 222.828125 364.074219 223.105469 365 223.105469 L 365 223.78125 L 355.710938 223.78125 L 355.710938 223.105469 C 356.652344 223.054688 357.324219 222.949219 357.695313 222.777344 C 358.078125 222.613281 358.265625 222.328125 358.265625 221.917969 C 358.265625 221.539063 357.964844 220.609375 357.367188 219.144531 L 356.074219 216.136719 L 346.453125 216.136719 C 346.4375 216.1875 346.117188 216.984375 345.484375 218.527344 C 344.851563 220.070313 344.539063 221.09375 344.539063 221.597656 C 344.539063 222.601563 345.359375 223.105469 346.988281 223.105469 L 346.988281 223.78125 L 339.773438 223.78125 L 339.773438 223.105469 C 340.78125 223.011719 341.574219 222.507813 342.152344 221.625 C 342.730469 220.730469 343.523438 219.164063 344.539063 216.90625 L 351.914063 199.800781 L 352.652344 199.800781 L 361.523438 219.613281 "/>
<path style=" stroke:none;fill-rule:nonzero;fill:rgb(5.899048%,48.599243%,75.698853%);fill-opacity:1;" d="M 162.960938 37.378906 L 182.019531 27.53125 L 202.136719 37.355469 Z M 181.386719 20.929688 L 137.203125 43.761719 L 228.019531 43.707031 Z M 181.386719 20.929688 "/>
</g>
</svg>
