<?xml version="1.0" encoding="UTF-8"?>
<svg xmlns="http://www.w3.org/2000/svg" xmlns:xlink="http://www.w3.org/1999/xlink" width="194pt" height="194pt" viewBox="0 0 194 194" version="1.1">
<g id="surface1">
<path style=" stroke:none;fill-rule:evenodd;fill:rgb(100%,100%,100%);fill-opacity:1;" d="M 0.257813 0.675781 L 193.015625 0.675781 L 193.015625 193.433594 L 0.257813 193.433594 L 0.257813 0.675781 "/>
<path style=" stroke:none;fill-rule:evenodd;fill:rgb(99.606323%,74.508667%,6.274414%);fill-opacity:1;" d="M 19.675781 83.664063 C 19.972656 83.085938 20.671875 82.867188 21.234375 83.175781 C 21.796875 83.484375 22.011719 84.203125 21.714844 84.78125 C 21.414063 85.363281 20.714844 85.582031 20.152344 85.273438 C 19.589844 84.964844 19.375 84.246094 19.675781 83.664063 "/>
<path style=" stroke:none;fill-rule:evenodd;fill:rgb(99.606323%,74.508667%,6.274414%);fill-opacity:1;" d="M 22.449219 85.1875 C 22.855469 84.402344 23.800781 84.105469 24.5625 84.519531 C 25.324219 84.9375 25.613281 85.910156 25.207031 86.695313 C 24.800781 87.480469 23.855469 87.777344 23.09375 87.359375 C 22.335938 86.945313 22.042969 85.96875 22.449219 85.1875 "/>
<path style=" stroke:none;fill-rule:evenodd;fill:rgb(99.606323%,74.508667%,6.274414%);fill-opacity:1;" d="M 25.898438 87.074219 C 26.367188 86.160156 27.46875 85.816406 28.351563 86.300781 C 29.238281 86.785156 29.574219 87.917969 29.105469 88.828125 C 28.632813 89.742188 27.535156 90.089844 26.648438 89.605469 C 25.761719 89.117188 25.425781 87.984375 25.898438 87.074219 "/>
<path style=" stroke:none;fill-rule:evenodd;fill:rgb(99.606323%,74.508667%,6.274414%);fill-opacity:1;" d="M 29.4375 89.011719 C 29.988281 87.949219 31.273438 87.542969 32.304688 88.109375 C 33.339844 88.675781 33.734375 89.996094 33.183594 91.0625 C 32.632813 92.128906 31.347656 92.53125 30.316406 91.96875 C 29.28125 91.398438 28.886719 90.078125 29.4375 89.011719 "/>
<path style=" stroke:none;fill-rule:evenodd;fill:rgb(99.606323%,74.508667%,6.274414%);fill-opacity:1;" d="M 33.222656 91.085938 C 33.859375 89.847656 35.351563 89.378906 36.550781 90.035156 C 37.753906 90.695313 38.207031 92.230469 37.570313 93.464844 C 36.929688 94.703125 35.441406 95.171875 34.238281 94.515625 C 33.039063 93.855469 32.585938 92.320313 33.222656 91.085938 "/>
<path style=" stroke:none;fill-rule:evenodd;fill:rgb(99.606323%,74.508667%,6.274414%);fill-opacity:1;" d="M 37.117188 93.21875 C 37.871094 91.757813 39.632813 91.203125 41.050781 91.980469 C 42.46875 92.757813 43.007813 94.570313 42.253906 96.03125 C 41.496094 97.488281 39.738281 98.042969 38.320313 97.269531 C 36.902344 96.492188 36.363281 94.679688 37.117188 93.21875 "/>
<path style=" stroke:none;fill-rule:evenodd;fill:rgb(99.606323%,74.508667%,6.274414%);fill-opacity:1;" d="M 17.488281 87.902344 C 17.785156 87.324219 18.484375 87.101563 19.046875 87.410156 C 19.609375 87.71875 19.824219 88.4375 19.527344 89.019531 C 19.226563 89.597656 18.527344 89.816406 17.964844 89.511719 C 17.402344 89.203125 17.1875 88.480469 17.488281 87.902344 "/>
<path style=" stroke:none;fill-rule:evenodd;fill:rgb(99.606323%,74.508667%,6.274414%);fill-opacity:1;" d="M 20.261719 89.421875 C 20.667969 88.636719 21.613281 88.339844 22.375 88.757813 C 23.136719 89.175781 23.425781 90.148438 23.019531 90.933594 C 22.613281 91.71875 21.667969 92.015625 20.90625 91.597656 C 20.148438 91.179688 19.855469 90.207031 20.261719 89.421875 "/>
<path style=" stroke:none;fill-rule:evenodd;fill:rgb(99.606323%,74.508667%,6.274414%);fill-opacity:1;" d="M 23.710938 91.308594 C 24.179688 90.398438 25.28125 90.050781 26.167969 90.535156 C 27.050781 91.023438 27.386719 92.15625 26.917969 93.066406 C 26.445313 93.976563 25.347656 94.324219 24.460938 93.839844 C 23.574219 93.355469 23.238281 92.222656 23.710938 91.308594 "/>
<path style=" stroke:none;fill-rule:evenodd;fill:rgb(99.606323%,74.508667%,6.274414%);fill-opacity:1;" d="M 27.25 93.25 C 27.800781 92.183594 29.085938 91.78125 30.117188 92.347656 C 31.152344 92.910156 31.546875 94.234375 30.996094 95.300781 C 30.445313 96.363281 29.160156 96.769531 28.128906 96.203125 C 27.09375 95.636719 26.699219 94.3125 27.25 93.25 "/>
<path style=" stroke:none;fill-rule:evenodd;fill:rgb(99.606323%,74.508667%,6.274414%);fill-opacity:1;" d="M 31.035156 95.320313 C 31.671875 94.085938 33.164063 93.617188 34.363281 94.273438 C 35.566406 94.929688 36.023438 96.464844 35.382813 97.703125 C 34.746094 98.941406 33.253906 99.40625 32.054688 98.75 C 30.851563 98.09375 30.398438 96.558594 31.035156 95.320313 "/>
<path style=" stroke:none;fill-rule:evenodd;fill:rgb(99.606323%,74.508667%,6.274414%);fill-opacity:1;" d="M 34.929688 97.457031 C 35.683594 95.996094 37.445313 95.441406 38.863281 96.21875 C 40.28125 96.992188 40.820313 98.804688 40.066406 100.265625 C 39.3125 101.726563 37.550781 102.28125 36.132813 101.503906 C 34.714844 100.726563 34.179688 98.914063 34.929688 97.457031 "/>
<path style=" stroke:none;fill-rule:evenodd;fill:rgb(99.606323%,74.508667%,6.274414%);fill-opacity:1;" d="M 15.480469 91.789063 C 15.777344 91.210938 16.476563 90.988281 17.039063 91.296875 C 17.605469 91.605469 17.816406 92.324219 17.519531 92.90625 C 17.21875 93.484375 16.519531 93.707031 15.957031 93.398438 C 15.394531 93.089844 15.179688 92.371094 15.480469 91.789063 "/>
<path style=" stroke:none;fill-rule:evenodd;fill:rgb(99.606323%,74.508667%,6.274414%);fill-opacity:1;" d="M 18.253906 93.308594 C 18.660156 92.523438 19.605469 92.226563 20.367188 92.644531 C 21.128906 93.0625 21.417969 94.035156 21.011719 94.820313 C 20.609375 95.605469 19.664063 95.902344 18.902344 95.484375 C 18.140625 95.066406 17.851563 94.09375 18.253906 93.308594 "/>
<path style=" stroke:none;fill-rule:evenodd;fill:rgb(99.606323%,74.508667%,6.274414%);fill-opacity:1;" d="M 21.703125 95.199219 C 22.171875 94.285156 23.273438 93.941406 24.160156 94.425781 C 25.042969 94.910156 25.378906 96.042969 24.910156 96.953125 C 24.4375 97.867188 23.339844 98.210938 22.453125 97.726563 C 21.570313 97.242188 21.230469 96.109375 21.703125 95.199219 "/>
<path style=" stroke:none;fill-rule:evenodd;fill:rgb(99.606323%,74.508667%,6.274414%);fill-opacity:1;" d="M 25.242188 97.136719 C 25.792969 96.070313 27.078125 95.667969 28.109375 96.234375 C 29.144531 96.800781 29.539063 98.121094 28.988281 99.1875 C 28.4375 100.253906 27.15625 100.65625 26.121094 100.089844 C 25.085938 99.523438 24.695313 98.203125 25.242188 97.136719 "/>
<path style=" stroke:none;fill-rule:evenodd;fill:rgb(99.606323%,74.508667%,6.274414%);fill-opacity:1;" d="M 29.027344 99.210938 C 29.664063 97.972656 31.15625 97.503906 32.359375 98.160156 C 33.558594 98.820313 34.015625 100.355469 33.375 101.589844 C 32.738281 102.828125 31.246094 103.296875 30.046875 102.636719 C 28.84375 101.980469 28.390625 100.445313 29.027344 99.210938 "/>
<path style=" stroke:none;fill-rule:evenodd;fill:rgb(99.606323%,74.508667%,6.274414%);fill-opacity:1;" d="M 32.925781 101.34375 C 33.679688 99.882813 35.4375 99.328125 36.855469 100.105469 C 38.273438 100.882813 38.8125 102.695313 38.058594 104.152344 C 37.304688 105.613281 35.542969 106.167969 34.125 105.390625 C 32.710938 104.613281 32.171875 102.800781 32.925781 101.34375 "/>
<path style=" stroke:none;fill-rule:evenodd;fill:rgb(99.606323%,74.508667%,6.274414%);fill-opacity:1;" d="M 13.421875 95.773438 C 13.722656 95.191406 14.421875 94.972656 14.984375 95.28125 C 15.546875 95.589844 15.761719 96.308594 15.460938 96.890625 C 15.164063 97.46875 14.464844 97.6875 13.902344 97.378906 C 13.335938 97.074219 13.125 96.351563 13.421875 95.773438 "/>
<path style=" stroke:none;fill-rule:evenodd;fill:rgb(99.606323%,74.508667%,6.274414%);fill-opacity:1;" d="M 16.199219 97.292969 C 16.601563 96.507813 17.550781 96.210938 18.3125 96.628906 C 19.074219 97.042969 19.359375 98.019531 18.957031 98.800781 C 18.550781 99.585938 17.605469 99.886719 16.84375 99.46875 C 16.082031 99.050781 15.792969 98.078125 16.199219 97.292969 "/>
<path style=" stroke:none;fill-rule:evenodd;fill:rgb(99.606323%,74.508667%,6.274414%);fill-opacity:1;" d="M 19.648438 99.179688 C 20.117188 98.269531 21.21875 97.921875 22.101563 98.40625 C 22.988281 98.894531 23.324219 100.023438 22.851563 100.9375 C 22.382813 101.847656 21.28125 102.195313 20.398438 101.710938 C 19.511719 101.222656 19.175781 100.09375 19.648438 99.179688 "/>
<path style=" stroke:none;fill-rule:evenodd;fill:rgb(99.606323%,74.508667%,6.274414%);fill-opacity:1;" d="M 23.1875 101.121094 C 23.738281 100.054688 25.019531 99.648438 26.054688 100.214844 C 27.089844 100.78125 27.480469 102.105469 26.933594 103.171875 C 26.382813 104.234375 25.097656 104.640625 24.0625 104.074219 C 23.03125 103.507813 22.636719 102.183594 23.1875 101.121094 "/>
<path style=" stroke:none;fill-rule:evenodd;fill:rgb(99.606323%,74.508667%,6.274414%);fill-opacity:1;" d="M 26.972656 103.191406 C 27.609375 101.957031 29.101563 101.484375 30.300781 102.144531 C 31.503906 102.800781 31.957031 104.335938 31.320313 105.574219 C 30.679688 106.808594 29.191406 107.277344 27.988281 106.621094 C 26.789063 105.964844 26.332031 104.429688 26.972656 103.191406 "/>
<path style=" stroke:none;fill-rule:evenodd;fill:rgb(99.606323%,74.508667%,6.274414%);fill-opacity:1;" d="M 30.867188 105.324219 C 31.621094 103.867188 33.382813 103.3125 34.800781 104.089844 C 36.214844 104.863281 36.753906 106.675781 36 108.136719 C 35.246094 109.597656 33.488281 110.148438 32.070313 109.375 C 30.652344 108.597656 30.113281 106.785156 30.867188 105.324219 "/>
<path style=" stroke:none;fill-rule:evenodd;fill:rgb(99.606323%,74.508667%,6.274414%);fill-opacity:1;" d="M 11.324219 99.839844 C 11.621094 99.257813 12.324219 99.039063 12.886719 99.347656 C 13.449219 99.65625 13.660156 100.375 13.363281 100.957031 C 13.0625 101.535156 12.363281 101.753906 11.800781 101.445313 C 11.238281 101.136719 11.023438 100.417969 11.324219 99.839844 "/>
<path style=" stroke:none;fill-rule:evenodd;fill:rgb(99.606323%,74.508667%,6.274414%);fill-opacity:1;" d="M 14.097656 101.359375 C 14.503906 100.574219 15.449219 100.277344 16.210938 100.695313 C 16.972656 101.109375 17.261719 102.085938 16.855469 102.867188 C 16.453125 103.652344 15.507813 103.953125 14.746094 103.535156 C 13.984375 103.117188 13.695313 102.144531 14.097656 101.359375 "/>
<path style=" stroke:none;fill-rule:evenodd;fill:rgb(99.606323%,74.508667%,6.274414%);fill-opacity:1;" d="M 17.546875 103.246094 C 18.019531 102.335938 19.117188 101.988281 20.003906 102.472656 C 20.886719 102.960938 21.226563 104.089844 20.753906 105.003906 C 20.28125 105.914063 19.183594 106.261719 18.296875 105.777344 C 17.414063 105.289063 17.078125 104.160156 17.546875 103.246094 "/>
<path style=" stroke:none;fill-rule:evenodd;fill:rgb(99.606323%,74.508667%,6.274414%);fill-opacity:1;" d="M 21.085938 105.183594 C 21.636719 104.121094 22.921875 103.714844 23.957031 104.28125 C 24.988281 104.847656 25.382813 106.171875 24.832031 107.234375 C 24.28125 108.300781 23 108.707031 21.964844 108.140625 C 20.929688 107.574219 20.539063 106.25 21.085938 105.183594 "/>
<path style=" stroke:none;fill-rule:evenodd;fill:rgb(99.606323%,74.508667%,6.274414%);fill-opacity:1;" d="M 24.871094 107.257813 C 25.511719 106.023438 27 105.550781 28.203125 106.210938 C 29.402344 106.867188 29.859375 108.402344 29.21875 109.640625 C 28.582031 110.875 27.089844 111.34375 25.890625 110.6875 C 24.6875 110.03125 24.234375 108.492188 24.871094 107.257813 "/>
<path style=" stroke:none;fill-rule:evenodd;fill:rgb(99.606323%,74.508667%,6.274414%);fill-opacity:1;" d="M 28.769531 109.390625 C 29.523438 107.933594 31.28125 107.378906 32.699219 108.152344 C 34.117188 108.929688 34.65625 110.742188 33.902344 112.203125 C 33.84375 112.3125 33.78125 112.417969 33.714844 112.519531 L 28.957031 112.519531 C 28.347656 111.625 28.238281 110.421875 28.769531 109.390625 "/>
<path style=" stroke:none;fill-rule:evenodd;fill:rgb(99.606323%,74.508667%,6.274414%);fill-opacity:1;" d="M 9.144531 104.0625 C 9.441406 103.484375 10.140625 103.265625 10.703125 103.574219 C 11.265625 103.878906 11.480469 104.601563 11.179688 105.179688 C 10.882813 105.761719 10.183594 105.980469 9.621094 105.671875 C 9.054688 105.363281 8.84375 104.644531 9.144531 104.0625 "/>
<path style=" stroke:none;fill-rule:evenodd;fill:rgb(99.606323%,74.508667%,6.274414%);fill-opacity:1;" d="M 11.917969 105.582031 C 12.324219 104.800781 13.269531 104.5 14.03125 104.917969 C 14.792969 105.335938 15.082031 106.308594 14.675781 107.09375 C 14.269531 107.878906 13.324219 108.175781 12.5625 107.757813 C 11.800781 107.339844 11.511719 106.367188 11.917969 105.582031 "/>
<path style=" stroke:none;fill-rule:evenodd;fill:rgb(99.606323%,74.508667%,6.274414%);fill-opacity:1;" d="M 15.367188 107.472656 C 15.835938 106.558594 16.9375 106.214844 17.820313 106.699219 C 18.707031 107.183594 19.042969 108.316406 18.574219 109.226563 C 18.101563 110.140625 17.003906 110.484375 16.117188 110 C 15.230469 109.515625 14.894531 108.382813 15.367188 107.472656 "/>
<path style=" stroke:none;fill-rule:evenodd;fill:rgb(99.606323%,74.508667%,6.274414%);fill-opacity:1;" d="M 18.90625 109.410156 C 19.457031 108.34375 20.738281 107.941406 21.773438 108.507813 C 22.808594 109.074219 23.203125 110.394531 22.652344 111.460938 C 22.378906 111.988281 21.929688 112.351563 21.417969 112.519531 L 20.136719 112.519531 C 20.019531 112.476563 19.898438 112.425781 19.78125 112.363281 C 18.75 111.796875 18.355469 110.476563 18.90625 109.410156 "/>
<path style=" stroke:none;fill-rule:evenodd;fill:rgb(99.606323%,74.508667%,6.274414%);fill-opacity:1;" d="M 22.691406 111.480469 C 23.328125 110.246094 24.820313 109.777344 26.019531 110.433594 C 26.804688 110.863281 27.269531 111.667969 27.324219 112.519531 L 22.40625 112.519531 C 22.425781 112.164063 22.519531 111.8125 22.691406 111.480469 "/>
<path style=" stroke:none;fill-rule:evenodd;fill:rgb(99.606323%,74.508667%,6.274414%);fill-opacity:1;" d="M 7.175781 107.871094 C 7.476563 107.292969 8.175781 107.070313 8.738281 107.378906 C 9.300781 107.6875 9.511719 108.40625 9.214844 108.988281 C 8.914063 109.566406 8.214844 109.789063 7.652344 109.480469 C 7.089844 109.171875 6.875 108.453125 7.175781 107.871094 "/>
<path style=" stroke:none;fill-rule:evenodd;fill:rgb(99.606323%,74.508667%,6.274414%);fill-opacity:1;" d="M 9.953125 109.390625 C 10.355469 108.605469 11.300781 108.308594 12.0625 108.726563 C 12.824219 109.144531 13.113281 110.117188 12.710938 110.902344 C 12.304688 111.6875 11.359375 111.984375 10.597656 111.566406 C 9.835938 111.148438 9.546875 110.175781 9.953125 109.390625 "/>
<path style=" stroke:none;fill-rule:evenodd;fill:rgb(99.606323%,74.508667%,6.274414%);fill-opacity:1;" d="M 13.398438 111.28125 C 13.871094 110.367188 14.96875 110.023438 15.855469 110.507813 C 16.578125 110.902344 16.933594 111.730469 16.785156 112.519531 L 13.222656 112.519531 C 13.144531 112.109375 13.195313 111.675781 13.398438 111.28125 "/>
<path style=" stroke:none;fill-rule:evenodd;fill:rgb(99.606323%,74.508667%,6.274414%);fill-opacity:1;" d="M 27.335938 81.417969 C 27.488281 81.835938 27.46875 82.3125 27.253906 82.738281 C 26.847656 83.519531 25.902344 83.820313 25.140625 83.402344 C 24.4375 83.019531 24.136719 82.164063 24.410156 81.417969 L 27.335938 81.417969 "/>
<path style=" stroke:none;fill-rule:evenodd;fill:rgb(99.606323%,74.508667%,6.274414%);fill-opacity:1;" d="M 27.941406 83.113281 C 28.414063 82.203125 29.511719 81.855469 30.398438 82.339844 C 31.28125 82.828125 31.621094 83.960938 31.148438 84.871094 C 30.675781 85.78125 29.578125 86.128906 28.691406 85.644531 C 27.808594 85.160156 27.472656 84.027344 27.941406 83.113281 "/>
<path style=" stroke:none;fill-rule:evenodd;fill:rgb(99.606323%,74.508667%,6.274414%);fill-opacity:1;" d="M 31.480469 85.054688 C 32.03125 83.988281 33.316406 83.585938 34.351563 84.148438 C 35.386719 84.714844 35.777344 86.039063 35.226563 87.105469 C 34.675781 88.167969 33.394531 88.574219 32.359375 88.007813 C 31.324219 87.441406 30.933594 86.117188 31.480469 85.054688 "/>
<path style=" stroke:none;fill-rule:evenodd;fill:rgb(99.606323%,74.508667%,6.274414%);fill-opacity:1;" d="M 35.265625 87.125 C 35.90625 85.890625 37.394531 85.421875 38.597656 86.078125 C 39.796875 86.734375 40.253906 88.269531 39.613281 89.507813 C 38.976563 90.742188 37.484375 91.210938 36.285156 90.554688 C 35.085938 89.898438 34.628906 88.363281 35.265625 87.125 "/>
<path style=" stroke:none;fill-rule:evenodd;fill:rgb(99.606323%,74.508667%,6.274414%);fill-opacity:1;" d="M 39.164063 89.257813 C 39.917969 87.800781 41.675781 87.246094 43.09375 88.019531 C 44.511719 88.796875 45.050781 90.609375 44.296875 92.070313 C 43.542969 93.53125 41.78125 94.085938 40.363281 93.308594 C 38.949219 92.53125 38.410156 90.71875 39.164063 89.257813 "/>
<path style=" stroke:none;fill-rule:evenodd;fill:rgb(99.606323%,74.508667%,6.274414%);fill-opacity:1;" d="M 37.296875 81.417969 C 37.535156 82 37.527344 82.683594 37.214844 83.285156 C 36.664063 84.351563 35.378906 84.757813 34.347656 84.1875 C 33.371094 83.65625 32.964844 82.445313 33.386719 81.417969 L 37.296875 81.417969 "/>
<path style=" stroke:none;fill-rule:evenodd;fill:rgb(99.606323%,74.508667%,6.274414%);fill-opacity:1;" d="M 37.507813 82.785156 C 38.148438 81.546875 39.636719 81.078125 40.839844 81.738281 C 42.039063 82.394531 42.496094 83.929688 41.855469 85.164063 C 41.21875 86.402344 39.726563 86.871094 38.527344 86.214844 C 37.324219 85.554688 36.871094 84.019531 37.507813 82.785156 "/>
<path style=" stroke:none;fill-rule:evenodd;fill:rgb(99.606323%,74.508667%,6.274414%);fill-opacity:1;" d="M 41.40625 84.917969 C 42.15625 83.460938 43.917969 82.90625 45.335938 83.679688 C 46.753906 84.457031 47.292969 86.269531 46.539063 87.730469 C 45.785156 89.1875 44.023438 89.742188 42.605469 88.96875 C 41.191406 88.191406 40.652344 86.378906 41.40625 84.917969 "/>
<path style=" stroke:none;fill-rule:evenodd;fill:rgb(99.606323%,74.508667%,6.274414%);fill-opacity:1;" d="M 31.609375 112.519531 L 46.175781 83.820313 L 39.476563 100.070313 C 39.476563 100.070313 40.808594 108.820313 45.410156 112.519531 L 31.609375 112.519531 "/>
<path style=" stroke:none;fill-rule:evenodd;fill:rgb(100%,100%,100%);fill-opacity:1;" d="M 39.429688 96.96875 C 39.429688 85.679688 48.320313 76.527344 59.28125 76.527344 C 70.246094 76.527344 79.132813 85.679688 79.132813 96.96875 C 79.132813 108.257813 70.246094 117.410156 59.28125 117.410156 C 48.320313 117.410156 39.429688 108.257813 39.429688 96.96875 "/>
<path style=" stroke:none;fill-rule:evenodd;fill:rgb(21.598816%,34.498596%,59.199524%);fill-opacity:1;" d="M 41.636719 97.144531 C 41.636719 85.851563 50.523438 76.699219 61.488281 76.699219 C 72.453125 76.699219 81.339844 85.851563 81.339844 97.144531 C 81.339844 108.433594 72.453125 117.585938 61.488281 117.585938 C 50.523438 117.585938 41.636719 108.433594 41.636719 97.144531 "/>
<path style="fill:none;stroke-width:13.7747;stroke-linecap:butt;stroke-linejoin:miter;stroke:rgb(99.606323%,74.508667%,6.274414%);stroke-opacity:1;stroke-miterlimit:2.6131;" d="M 422.56795 954.551418 C 422.56795 1065.848379 512.758595 1156.04858 624.039975 1156.04858 C 735.321356 1156.04858 825.512001 1065.848379 825.512001 954.551418 C 825.512001 843.292955 735.321356 753.092754 624.039975 753.092754 C 512.758595 753.092754 422.56795 843.292955 422.56795 954.551418 Z M 422.56795 954.551418 " transform="matrix(0.0985326,0,0,-0.101467,0,194)"/>
<path style=" stroke:none;fill-rule:evenodd;fill:rgb(100%,100%,100%);fill-opacity:1;" d="M 59.105469 112.226563 C 58.90625 111.941406 58.890625 111.726563 58.863281 111.46875 C 58.972656 111.449219 59.164063 111.363281 59.25 111.328125 C 59.414063 111.253906 59.613281 111.015625 59.542969 110.828125 C 59.511719 110.570313 59.207031 110.417969 58.964844 110.402344 C 58.636719 110.527344 58.636719 110.996094 58.734375 111.289063 C 58.601563 111.503906 58.214844 111.621094 57.972656 111.503906 C 57.921875 111.300781 57.730469 111.023438 57.859375 110.792969 L 58.457031 110.425781 C 58.472656 110.25 58.5 110 58.300781 109.875 C 58.121094 109.824219 57.824219 109.75 57.695313 109.957031 C 57.417969 110.195313 57.792969 110.480469 57.582031 110.757813 C 57.359375 110.808594 57.09375 111.03125 56.867188 110.871094 C 56.796875 110.6875 56.695313 110.367188 56.746094 110.195313 C 56.875 110.027344 57.109375 110.082031 57.28125 110 C 57.417969 109.832031 57.4375 109.636719 57.34375 109.414063 C 57.28125 109.316406 57.152344 109.148438 56.980469 109.164063 C 56.753906 109.207031 56.582031 109.304688 56.347656 109.148438 C 56.296875 108.90625 56.140625 108.648438 56.304688 108.398438 C 56.488281 108.328125 56.660156 108.34375 56.882813 108.203125 C 56.945313 107.988281 56.882813 107.8125 56.804688 107.535156 C 56.554688 107.226563 56.3125 107.742188 56.019531 107.535156 C 55.984375 107.277344 55.828125 107.011719 55.960938 106.726563 C 56.175781 106.71875 56.375 106.59375 56.617188 106.609375 C 56.804688 106.78125 56.703125 107.054688 56.867188 107.332031 C 57.066406 107.449219 57.464844 107.3125 57.628906 107.109375 C 57.652344 106.894531 57.429688 106.609375 57.550781 106.378906 C 57.765625 106.316406 58.03125 106.203125 58.265625 106.253906 C 58.40625 106.371094 58.386719 106.59375 58.429688 106.796875 C 58.59375 107.011719 58.972656 106.761719 59.25 106.746094 C 59.328125 106.585938 59.25 106.363281 59.15625 106.085938 C 59.234375 105.835938 59.632813 105.773438 59.898438 105.800781 C 60.027344 105.945313 60.175781 106.28125 60.089844 106.53125 C 59.847656 106.558594 59.542969 106.683594 59.414063 107.003906 C 59.398438 107.171875 59.484375 107.394531 59.71875 107.5 C 59.847656 107.617188 60.113281 107.492188 60.210938 107.402344 C 60.484375 107.164063 60.132813 106.816406 60.261719 106.523438 C 60.425781 106.398438 60.695313 106.414063 60.917969 106.40625 C 61.082031 106.566406 61.117188 106.867188 61.089844 107.082031 L 60.453125 107.519531 C 60.433594 107.714844 60.523438 107.972656 60.683594 108.105469 C 60.859375 108.222656 61.144531 108.148438 61.296875 107.972656 C 61.472656 107.757813 61.332031 107.5625 61.324219 107.3125 C 61.480469 107.152344 61.738281 107.039063 62.085938 107.082031 C 62.230469 107.339844 62.28125 107.582031 62.128906 107.839844 C 61.9375 107.820313 61.628906 107.972656 61.539063 108.140625 C 61.480469 108.320313 61.523438 108.578125 61.730469 108.710938 C 61.921875 108.863281 62.101563 108.773438 62.359375 108.703125 C 62.59375 108.417969 62.238281 108.132813 62.371094 107.820313 C 62.515625 107.714844 62.851563 107.535156 63.085938 107.707031 C 63.148438 107.902344 63.304688 108.167969 63.242188 108.363281 L 62.550781 108.628906 C 62.457031 108.773438 62.585938 108.96875 62.65625 109.164063 C 62.800781 109.652344 63.207031 109.171875 63.476563 109.414063 C 63.542969 109.636719 63.648438 109.875 63.570313 110.132813 C 63.390625 110.207031 63.214844 110.222656 63 110.292969 C 62.863281 110.230469 62.714844 109.9375 62.699219 109.761719 C 62.636719 109.644531 62.464844 109.574219 62.28125 109.601563 C 61.894531 109.75 61.773438 110.277344 62.171875 110.5 C 62.335938 110.621094 62.59375 110.355469 62.792969 110.527344 C 62.851563 110.675781 63 110.988281 62.949219 111.226563 C 62.828125 111.328125 62.550781 111.371094 62.335938 111.421875 L 62.214844 111.378906 C 62.066406 111.21875 62.171875 110.933594 62.007813 110.695313 C 61.792969 110.648438 61.609375 110.773438 61.351563 110.828125 C 61.28125 111.007813 61.429688 111.21875 61.402344 111.449219 C 61.253906 111.621094 60.902344 111.761719 60.625 111.664063 C 60.554688 111.503906 60.476563 111.273438 60.425781 111.09375 C 60.21875 110.933594 59.960938 111.078125 59.699219 111.183594 C 59.570313 111.371094 59.726563 111.65625 59.769531 111.90625 C 59.683594 112.152344 59.40625 112.136719 59.140625 112.242188 L 59.105469 112.226563 "/>
<path style=" stroke:none;fill-rule:evenodd;fill:rgb(100%,100%,100%);fill-opacity:1;" d="M 58.75 105.285156 C 58.90625 105.382813 58.957031 105.570313 58.871094 105.730469 C 58.800781 105.871094 58.601563 105.917969 58.464844 105.835938 C 58.320313 105.746094 58.265625 105.5625 58.34375 105.410156 C 58.429688 105.257813 58.628906 105.207031 58.75 105.285156 "/>
<path style=" stroke:none;fill-rule:evenodd;fill:rgb(100%,100%,100%);fill-opacity:1;" d="M 64.035156 108.488281 C 64.183594 108.558594 64.21875 108.753906 64.148438 108.90625 C 64.0625 109.058594 63.882813 109.101563 63.734375 109.023438 C 63.578125 108.933594 63.535156 108.738281 63.621094 108.585938 C 63.699219 108.445313 63.890625 108.390625 64.035156 108.488281 "/>
<path style=" stroke:none;fill-rule:evenodd;fill:rgb(100%,100%,100%);fill-opacity:1;" d="M 57.582031 104.769531 C 57.695313 104.839844 57.722656 104.984375 57.671875 105.097656 C 57.601563 105.207031 57.464844 105.242188 57.359375 105.1875 C 57.246094 105.117188 57.210938 104.972656 57.273438 104.859375 C 57.332031 104.75 57.472656 104.707031 57.582031 104.769531 "/>
<path style=" stroke:none;fill-rule:evenodd;fill:rgb(100%,100%,100%);fill-opacity:1;" d="M 64.96875 109.207031 C 65.054688 109.261719 65.089844 109.386719 65.03125 109.484375 C 64.980469 109.566406 64.867188 109.601563 64.78125 109.546875 C 64.683594 109.503906 64.660156 109.378906 64.710938 109.28125 C 64.761719 109.191406 64.882813 109.164063 64.96875 109.207031 "/>
<path style=" stroke:none;fill-rule:evenodd;fill:rgb(100%,100%,100%);fill-opacity:1;" d="M 64.410156 110.195313 C 64.539063 110.257813 64.574219 110.425781 64.511719 110.5625 C 64.445313 110.695313 64.28125 110.738281 64.148438 110.660156 C 64.027344 110.589844 63.984375 110.417969 64.054688 110.292969 C 64.132813 110.160156 64.296875 110.125 64.410156 110.195313 "/>
<path style=" stroke:none;fill-rule:evenodd;fill:rgb(100%,100%,100%);fill-opacity:1;" d="M 63.832031 111.238281 C 63.984375 111.335938 64.054688 111.558594 63.960938 111.726563 C 63.863281 111.886719 63.65625 111.941406 63.492188 111.859375 C 63.328125 111.761719 63.269531 111.539063 63.355469 111.371094 C 63.449219 111.203125 63.664063 111.148438 63.832031 111.238281 "/>
<path style=" stroke:none;fill-rule:evenodd;fill:rgb(100%,100%,100%);fill-opacity:1;" d="M 62.1875 111.789063 C 62.300781 111.851563 62.335938 111.992188 62.265625 112.089844 C 62.207031 112.214844 62.078125 112.25 61.957031 112.191406 C 61.859375 112.128906 61.808594 111.984375 61.878906 111.867188 C 61.9375 111.742188 62.085938 111.71875 62.1875 111.789063 "/>
<path style=" stroke:none;fill-rule:evenodd;fill:rgb(100%,100%,100%);fill-opacity:1;" d="M 61.53125 112.875 C 61.609375 112.925781 61.644531 113.050781 61.601563 113.140625 C 61.550781 113.230469 61.429688 113.265625 61.332031 113.222656 C 61.253906 113.160156 61.222656 113.042969 61.273438 112.953125 C 61.316406 112.855469 61.4375 112.820313 61.53125 112.875 "/>
<path style=" stroke:none;fill-rule:evenodd;fill:rgb(100%,100%,100%);fill-opacity:1;" d="M 65.53125 108.195313 C 65.609375 108.238281 65.628906 108.335938 65.582031 108.40625 C 65.539063 108.488281 65.453125 108.515625 65.375 108.480469 C 65.316406 108.417969 65.289063 108.328125 65.324219 108.257813 C 65.359375 108.175781 65.453125 108.160156 65.53125 108.195313 "/>
<path style=" stroke:none;fill-rule:evenodd;fill:rgb(100%,100%,100%);fill-opacity:1;" d="M 66.152344 107.171875 C 66.101563 107.136719 66.015625 107.164063 65.988281 107.226563 C 65.964844 107.269531 65.980469 107.339844 66.042969 107.367188 C 66.101563 107.410156 66.152344 107.394531 66.1875 107.332031 C 66.222656 107.269531 66.207031 107.207031 66.152344 107.171875 "/>
<path style=" stroke:none;fill-rule:evenodd;fill:rgb(100%,100%,100%);fill-opacity:1;" d="M 60.988281 101.398438 C 61.039063 101.425781 61.054688 101.488281 61.039063 101.53125 C 60.996094 101.585938 60.945313 101.59375 60.902344 101.566406 C 60.859375 101.539063 60.832031 101.46875 60.859375 101.433594 C 60.890625 101.390625 60.945313 101.371094 60.988281 101.398438 "/>
<path style=" stroke:none;fill-rule:evenodd;fill:rgb(100%,100%,100%);fill-opacity:1;" d="M 61.988281 101.957031 C 62.058594 102.003906 62.085938 102.074219 62.050781 102.128906 C 62.007813 102.199219 61.9375 102.214844 61.886719 102.191406 C 61.824219 102.144531 61.800781 102.074219 61.835938 102.011719 C 61.878906 101.949219 61.945313 101.933594 61.988281 101.957031 "/>
<path style=" stroke:none;fill-rule:evenodd;fill:rgb(100%,100%,100%);fill-opacity:1;" d="M 63.078125 102.625 C 63.121094 102.660156 63.140625 102.722656 63.105469 102.757813 C 63.085938 102.820313 63.019531 102.839844 62.964844 102.820313 C 62.921875 102.769531 62.914063 102.714844 62.941406 102.679688 C 62.957031 102.625 63.027344 102.609375 63.078125 102.625 "/>
<path style=" stroke:none;fill-rule:evenodd;fill:rgb(100%,100%,100%);fill-opacity:1;" d="M 64.105469 103.246094 C 64.148438 103.265625 64.167969 103.335938 64.140625 103.382813 C 64.113281 103.433594 64.054688 103.445313 64.003906 103.410156 C 63.96875 103.390625 63.949219 103.328125 63.96875 103.285156 C 64.003906 103.238281 64.054688 103.214844 64.105469 103.246094 "/>
<path style=" stroke:none;fill-rule:evenodd;fill:rgb(100%,100%,100%);fill-opacity:1;" d="M 65.203125 103.925781 C 65.265625 103.953125 65.28125 104.015625 65.246094 104.066406 C 65.210938 104.109375 65.160156 104.121094 65.117188 104.101563 C 65.074219 104.074219 65.054688 104.015625 65.082031 103.960938 C 65.109375 103.914063 65.160156 103.898438 65.203125 103.925781 "/>
<path style=" stroke:none;fill-rule:evenodd;fill:rgb(100%,100%,100%);fill-opacity:1;" d="M 66.25 104.59375 C 66.292969 104.609375 66.308594 104.664063 66.292969 104.707031 C 66.257813 104.742188 66.214844 104.75 66.171875 104.734375 C 66.144531 104.714844 66.128906 104.652344 66.152344 104.617188 C 66.160156 104.582031 66.222656 104.566406 66.25 104.59375 "/>
<path style=" stroke:none;fill-rule:evenodd;fill:rgb(100%,100%,100%);fill-opacity:1;" d="M 67.269531 105.160156 C 67.3125 105.179688 67.335938 105.222656 67.300781 105.257813 C 67.285156 105.285156 67.234375 105.320313 67.199219 105.277344 C 67.15625 105.269531 67.148438 105.214844 67.171875 105.1875 C 67.191406 105.152344 67.234375 105.125 67.269531 105.160156 "/>
<path style=" stroke:none;fill-rule:evenodd;fill:rgb(100%,100%,100%);fill-opacity:1;" d="M 58.242188 101.167969 C 58.273438 101.183594 58.28125 101.238281 58.265625 101.273438 C 58.25 101.320313 58.199219 101.328125 58.152344 101.292969 C 58.109375 101.273438 58.101563 101.230469 58.136719 101.195313 C 58.152344 101.148438 58.207031 101.148438 58.242188 101.167969 "/>
<path style=" stroke:none;fill-rule:evenodd;fill:rgb(100%,100%,100%);fill-opacity:1;" d="M 59.277344 101.773438 C 59.3125 101.789063 59.328125 101.851563 59.304688 101.886719 C 59.285156 101.921875 59.234375 101.933594 59.199219 101.90625 C 59.148438 101.886719 59.140625 101.84375 59.15625 101.796875 C 59.183594 101.753906 59.234375 101.746094 59.277344 101.773438 "/>
<path style=" stroke:none;fill-rule:evenodd;fill:rgb(100%,100%,100%);fill-opacity:1;" d="M 60.417969 102.449219 C 60.453125 102.484375 60.46875 102.535156 60.445313 102.582031 C 60.425781 102.625 60.347656 102.652344 60.304688 102.625 C 60.261719 102.597656 60.253906 102.535156 60.269531 102.492188 C 60.296875 102.4375 60.355469 102.421875 60.417969 102.449219 "/>
<path style=" stroke:none;fill-rule:evenodd;fill:rgb(100%,100%,100%);fill-opacity:1;" d="M 61.464844 102.925781 C 61.558594 102.988281 61.582031 103.113281 61.53125 103.214844 C 61.472656 103.308594 61.351563 103.347656 61.265625 103.285156 C 61.160156 103.230469 61.132813 103.105469 61.1875 103.007813 C 61.253906 102.910156 61.367188 102.875 61.464844 102.925781 "/>
<path style=" stroke:none;fill-rule:evenodd;fill:rgb(100%,100%,100%);fill-opacity:1;" d="M 62.550781 103.558594 C 62.664063 103.613281 62.699219 103.753906 62.636719 103.871094 C 62.570313 103.976563 62.4375 104.003906 62.34375 103.941406 C 62.238281 103.890625 62.195313 103.746094 62.257813 103.648438 C 62.308594 103.53125 62.449219 103.496094 62.550781 103.558594 "/>
<path style=" stroke:none;fill-rule:evenodd;fill:rgb(100%,100%,100%);fill-opacity:1;" d="M 63.554688 104.21875 C 63.648438 104.28125 63.675781 104.386719 63.605469 104.484375 C 63.570313 104.566406 63.46875 104.59375 63.378906 104.546875 C 63.304688 104.492188 63.269531 104.386719 63.3125 104.308594 C 63.363281 104.210938 63.476563 104.171875 63.554688 104.21875 "/>
<path style=" stroke:none;fill-rule:evenodd;fill:rgb(100%,100%,100%);fill-opacity:1;" d="M 64.667969 104.910156 C 64.726563 104.9375 64.753906 105.027344 64.710938 105.105469 C 64.675781 105.167969 64.589844 105.195313 64.53125 105.160156 C 64.460938 105.105469 64.433594 105.019531 64.476563 104.957031 C 64.511719 104.894531 64.597656 104.867188 64.667969 104.910156 "/>
<path style=" stroke:none;fill-rule:evenodd;fill:rgb(100%,100%,100%);fill-opacity:1;" d="M 65.722656 105.5625 C 65.652344 105.527344 65.582031 105.542969 65.558594 105.605469 C 65.523438 105.660156 65.539063 105.738281 65.59375 105.765625 C 65.652344 105.808594 65.730469 105.785156 65.765625 105.730469 C 65.789063 105.667969 65.773438 105.589844 65.722656 105.5625 "/>
<path style=" stroke:none;fill-rule:evenodd;fill:rgb(100%,100%,100%);fill-opacity:1;" d="M 66.75 106.175781 C 66.800781 106.203125 66.820313 106.273438 66.792969 106.335938 C 66.757813 106.398438 66.691406 106.414063 66.628906 106.378906 C 66.578125 106.351563 66.550781 106.273438 66.585938 106.21875 C 66.621094 106.15625 66.699219 106.148438 66.75 106.175781 "/>
<path style=" stroke:none;fill-rule:evenodd;fill:rgb(100%,100%,100%);fill-opacity:1;" d="M 57.695313 102.171875 C 57.738281 102.207031 57.746094 102.261719 57.730469 102.3125 C 57.707031 102.359375 57.652344 102.367188 57.601563 102.351563 C 57.550781 102.3125 57.53125 102.261719 57.558594 102.214844 C 57.59375 102.164063 57.652344 102.144531 57.695313 102.171875 "/>
<path style=" stroke:none;fill-rule:evenodd;fill:rgb(100%,100%,100%);fill-opacity:1;" d="M 58.714844 102.75 C 58.769531 102.785156 58.800781 102.867188 58.75 102.917969 C 58.722656 102.980469 58.664063 103 58.601563 102.964844 C 58.535156 102.925781 58.527344 102.855469 58.550781 102.8125 C 58.585938 102.742188 58.664063 102.722656 58.714844 102.75 "/>
<path style=" stroke:none;fill-rule:evenodd;fill:rgb(100%,100%,100%);fill-opacity:1;" d="M 59.855469 103.433594 C 59.914063 103.480469 59.941406 103.558594 59.890625 103.613281 C 59.863281 103.691406 59.777344 103.710938 59.71875 103.675781 C 59.648438 103.621094 59.640625 103.550781 59.664063 103.488281 C 59.699219 103.410156 59.785156 103.390625 59.855469 103.433594 "/>
<path style=" stroke:none;fill-rule:evenodd;fill:rgb(100%,100%,100%);fill-opacity:1;" d="M 60.917969 103.941406 C 61.023438 104.003906 61.054688 104.148438 60.988281 104.246094 C 60.9375 104.351563 60.796875 104.386719 60.695313 104.332031 C 60.589844 104.273438 60.566406 104.128906 60.625 104.023438 C 60.683594 103.925781 60.816406 103.890625 60.917969 103.941406 "/>
<path style=" stroke:none;fill-rule:evenodd;fill:rgb(100%,100%,100%);fill-opacity:1;" d="M 61.988281 104.566406 C 62.101563 104.617188 62.136719 104.777344 62.085938 104.894531 C 62.015625 105.011719 61.867188 105.046875 61.757813 104.984375 C 61.644531 104.921875 61.601563 104.761719 61.671875 104.652344 C 61.730469 104.539063 61.886719 104.503906 61.988281 104.566406 "/>
<path style=" stroke:none;fill-rule:evenodd;fill:rgb(100%,100%,100%);fill-opacity:1;" d="M 62.949219 105.285156 C 63 105.339844 63.027344 105.410156 63 105.472656 C 62.957031 105.527344 62.898438 105.542969 62.84375 105.515625 C 62.777344 105.472656 62.757813 105.402344 62.785156 105.347656 C 62.828125 105.277344 62.898438 105.257813 62.949219 105.285156 "/>
<path style=" stroke:none;fill-rule:evenodd;fill:rgb(100%,100%,100%);fill-opacity:1;" d="M 64.105469 105.933594 C 64.175781 105.980469 64.183594 106.058594 64.160156 106.121094 C 64.125 106.191406 64.027344 106.21875 63.96875 106.183594 C 63.898438 106.148438 63.882813 106.050781 63.917969 105.996094 C 63.960938 105.917969 64.035156 105.890625 64.105469 105.933594 "/>
<path style=" stroke:none;fill-rule:evenodd;fill:rgb(100%,100%,100%);fill-opacity:1;" d="M 65.152344 106.558594 C 65.203125 106.59375 65.238281 106.664063 65.195313 106.726563 C 65.160156 106.78125 65.101563 106.808594 65.03125 106.773438 C 64.980469 106.726563 64.960938 106.664063 64.988281 106.601563 C 65.023438 106.539063 65.109375 106.523438 65.152344 106.558594 "/>
<path style=" stroke:none;fill-rule:evenodd;fill:rgb(100%,100%,100%);fill-opacity:1;" d="M 66.117188 107.136719 C 66.179688 107.171875 66.207031 107.261719 66.160156 107.324219 C 66.128906 107.394531 66.050781 107.410156 65.972656 107.367188 C 65.921875 107.339844 65.894531 107.25 65.9375 107.1875 C 65.972656 107.109375 66.050781 107.089844 66.117188 107.136719 "/>
<path style=" stroke:none;fill-rule:evenodd;fill:rgb(100%,100%,100%);fill-opacity:1;" d="M 67.777344 106.816406 C 67.828125 106.84375 67.847656 106.90625 67.820313 106.949219 C 67.792969 107.003906 67.734375 107.019531 67.691406 106.992188 C 67.632813 106.949219 67.621094 106.894531 67.640625 106.851563 C 67.691406 106.808594 67.742188 106.78125 67.777344 106.816406 "/>
<path style=" stroke:none;fill-rule:evenodd;fill:rgb(100%,100%,100%);fill-opacity:1;" d="M 68.816406 107.4375 C 68.847656 107.464844 68.859375 107.511719 68.832031 107.546875 C 68.824219 107.582031 68.761719 107.605469 68.726563 107.582031 C 68.683594 107.554688 68.675781 107.511719 68.703125 107.472656 C 68.726563 107.429688 68.773438 107.410156 68.816406 107.4375 "/>
<path style=" stroke:none;fill-rule:evenodd;fill:rgb(100%,100%,100%);fill-opacity:1;" d="M 67.199219 107.820313 C 67.242188 107.855469 67.25 107.910156 67.234375 107.945313 C 67.207031 108 67.148438 108.027344 67.105469 107.988281 C 67.050781 107.972656 67.035156 107.902344 67.0625 107.855469 C 67.09375 107.820313 67.148438 107.792969 67.199219 107.820313 "/>
<path style=" stroke:none;fill-rule:evenodd;fill:rgb(100%,100%,100%);fill-opacity:1;" d="M 68.246094 108.417969 C 68.210938 108.390625 68.15625 108.40625 68.125 108.46875 C 68.097656 108.515625 68.113281 108.578125 68.167969 108.59375 C 68.210938 108.613281 68.261719 108.605469 68.304688 108.558594 C 68.320313 108.523438 68.304688 108.460938 68.246094 108.417969 "/>
<path style=" stroke:none;fill-rule:evenodd;fill:rgb(100%,100%,100%);fill-opacity:1;" d="M 69.125 108.984375 C 69.160156 109.003906 69.167969 109.058594 69.152344 109.09375 C 69.132813 109.136719 69.074219 109.148438 69.039063 109.128906 C 68.996094 109.101563 68.996094 109.058594 69.003906 109.011719 C 69.03125 108.976563 69.074219 108.96875 69.125 108.984375 "/>
<path style=" stroke:none;fill-rule:evenodd;fill:rgb(100%,100%,100%);fill-opacity:1;" d="M 68.503906 110.082031 C 68.539063 110.105469 68.546875 110.160156 68.53125 110.195313 C 68.511719 110.242188 68.453125 110.242188 68.417969 110.222656 C 68.382813 110.207031 68.375 110.160156 68.382813 110.125 C 68.410156 110.070313 68.453125 110.0625 68.503906 110.082031 "/>
<path style=" stroke:none;fill-rule:evenodd;fill:rgb(100%,100%,100%);fill-opacity:1;" d="M 67.621094 109.546875 C 67.675781 109.574219 67.691406 109.636719 67.664063 109.6875 C 67.632813 109.734375 67.570313 109.75 67.527344 109.722656 C 67.484375 109.707031 67.457031 109.636719 67.5 109.582031 C 67.519531 109.539063 67.578125 109.527344 67.621094 109.546875 "/>
<path style=" stroke:none;fill-rule:evenodd;fill:rgb(100%,100%,100%);fill-opacity:1;" d="M 66.59375 108.90625 C 66.636719 108.933594 66.65625 109.011719 66.628906 109.074219 C 66.59375 109.136719 66.535156 109.15625 66.472656 109.128906 C 66.414063 109.085938 66.394531 109.011719 66.421875 108.941406 C 66.457031 108.898438 66.535156 108.878906 66.59375 108.90625 "/>
<path style=" stroke:none;fill-rule:evenodd;fill:rgb(100%,100%,100%);fill-opacity:1;" d="M 64.5625 107.605469 C 64.660156 107.667969 64.675781 107.757813 64.625 107.855469 C 64.574219 107.945313 64.476563 107.980469 64.382813 107.917969 C 64.304688 107.875 64.28125 107.757813 64.324219 107.679688 C 64.363281 107.582031 64.484375 107.554688 64.5625 107.605469 "/>
<path style=" stroke:none;fill-rule:evenodd;fill:rgb(100%,100%,100%);fill-opacity:1;" d="M 63.511719 106.949219 C 63.605469 107.019531 63.65625 107.164063 63.589844 107.269531 C 63.527344 107.367188 63.390625 107.410156 63.304688 107.347656 C 63.191406 107.277344 63.15625 107.144531 63.214844 107.046875 C 63.269531 106.929688 63.398438 106.894531 63.511719 106.949219 "/>
<path style=" stroke:none;fill-rule:evenodd;fill:rgb(100%,100%,100%);fill-opacity:1;" d="M 62.378906 106.28125 C 62.5 106.371094 62.542969 106.511719 62.472656 106.648438 C 62.394531 106.78125 62.25 106.824219 62.121094 106.734375 C 61.988281 106.671875 61.945313 106.503906 62.03125 106.390625 C 62.09375 106.253906 62.257813 106.21875 62.378906 106.28125 "/>
<path style=" stroke:none;fill-rule:evenodd;fill:rgb(100%,100%,100%);fill-opacity:1;" d="M 61.402344 105.605469 C 61.539063 105.695313 61.59375 105.882813 61.507813 106.023438 C 61.429688 106.175781 61.253906 106.21875 61.109375 106.148438 C 60.960938 106.050781 60.917969 105.871094 60.988281 105.730469 C 61.082031 105.578125 61.265625 105.535156 61.402344 105.605469 "/>
<path style=" stroke:none;fill-rule:evenodd;fill:rgb(100%,100%,100%);fill-opacity:1;" d="M 66.085938 109.894531 C 66.007813 109.847656 65.910156 109.875 65.867188 109.957031 C 65.816406 110.027344 65.84375 110.132813 65.929688 110.179688 C 65.996094 110.214844 66.101563 110.195313 66.136719 110.105469 C 66.179688 110.035156 66.152344 109.9375 66.085938 109.894531 "/>
<path style=" stroke:none;fill-rule:evenodd;fill:rgb(100%,100%,100%);fill-opacity:1;" d="M 67.09375 110.488281 C 67.15625 110.535156 67.171875 110.605469 67.140625 110.660156 C 67.113281 110.722656 67.035156 110.738281 66.972656 110.703125 C 66.921875 110.667969 66.90625 110.597656 66.941406 110.542969 C 66.964844 110.480469 67.035156 110.464844 67.09375 110.488281 "/>
<path style=" stroke:none;fill-rule:evenodd;fill:rgb(100%,100%,100%);fill-opacity:1;" d="M 67.960938 111.03125 C 67.90625 111.007813 67.839844 111.023438 67.804688 111.078125 C 67.769531 111.148438 67.785156 111.210938 67.847656 111.246094 C 67.90625 111.273438 67.984375 111.253906 68.011719 111.203125 C 68.035156 111.148438 68.027344 111.070313 67.960938 111.03125 "/>
<path style=" stroke:none;fill-rule:evenodd;fill:rgb(100%,100%,100%);fill-opacity:1;" d="M 68.910156 111.621094 C 68.859375 111.59375 68.796875 111.601563 68.761719 111.65625 C 68.738281 111.699219 68.753906 111.769531 68.804688 111.796875 C 68.847656 111.824219 68.910156 111.804688 68.933594 111.742188 C 68.96875 111.710938 68.953125 111.648438 68.910156 111.621094 "/>
<path style=" stroke:none;fill-rule:evenodd;fill:rgb(100%,100%,100%);fill-opacity:1;" d="M 65.453125 110.960938 C 65.539063 111.007813 65.582031 111.101563 65.53125 111.203125 C 65.480469 111.289063 65.367188 111.316406 65.289063 111.265625 C 65.195313 111.21875 65.167969 111.09375 65.21875 111.015625 C 65.28125 110.925781 65.375 110.898438 65.453125 110.960938 "/>
<path style=" stroke:none;fill-rule:evenodd;fill:rgb(100%,100%,100%);fill-opacity:1;" d="M 66.480469 111.558594 C 66.570313 111.601563 66.59375 111.71875 66.550781 111.804688 C 66.5 111.886719 66.386719 111.914063 66.300781 111.867188 C 66.214844 111.824219 66.1875 111.710938 66.238281 111.628906 C 66.292969 111.53125 66.394531 111.503906 66.480469 111.558594 "/>
<path style=" stroke:none;fill-rule:evenodd;fill:rgb(100%,100%,100%);fill-opacity:1;" d="M 67.335938 112.152344 C 67.390625 112.199219 67.414063 112.269531 67.378906 112.324219 C 67.347656 112.375 67.269531 112.410156 67.214844 112.367188 C 67.15625 112.332031 67.140625 112.261719 67.171875 112.207031 C 67.207031 112.144531 67.285156 112.128906 67.335938 112.152344 "/>
<path style=" stroke:none;fill-rule:evenodd;fill:rgb(100%,100%,100%);fill-opacity:1;" d="M 68.261719 112.714844 C 68.332031 112.742188 68.347656 112.820313 68.3125 112.882813 C 68.269531 112.9375 68.210938 112.953125 68.15625 112.917969 C 68.082031 112.890625 68.070313 112.820313 68.105469 112.75 C 68.140625 112.695313 68.210938 112.679688 68.261719 112.714844 "/>
<path style=" stroke:none;fill-rule:evenodd;fill:rgb(100%,100%,100%);fill-opacity:1;" d="M 64.875 112.011719 C 64.996094 112.082031 65.03125 112.234375 64.96875 112.359375 C 64.894531 112.5 64.738281 112.535156 64.617188 112.464844 C 64.496094 112.394531 64.460938 112.226563 64.53125 112.101563 C 64.597656 111.984375 64.753906 111.929688 64.875 112.011719 "/>
<path style=" stroke:none;fill-rule:evenodd;fill:rgb(100%,100%,100%);fill-opacity:1;" d="M 65.894531 112.660156 C 65.972656 112.707031 65.996094 112.820313 65.945313 112.902344 C 65.902344 112.988281 65.789063 113.027344 65.703125 112.972656 C 65.628906 112.917969 65.59375 112.820313 65.636719 112.722656 C 65.695313 112.644531 65.800781 112.597656 65.894531 112.660156 "/>
<path style=" stroke:none;fill-rule:evenodd;fill:rgb(100%,100%,100%);fill-opacity:1;" d="M 66.730469 113.230469 C 66.800781 113.265625 66.820313 113.355469 66.785156 113.425781 C 66.75 113.488281 66.65625 113.515625 66.59375 113.480469 C 66.542969 113.433594 66.507813 113.355469 66.550781 113.292969 C 66.585938 113.222656 66.664063 113.183594 66.730469 113.230469 "/>
<path style=" stroke:none;fill-rule:evenodd;fill:rgb(100%,100%,100%);fill-opacity:1;" d="M 63.214844 112.457031 C 63.328125 112.519531 63.355469 112.652344 63.3125 112.75 C 63.242188 112.863281 63.113281 112.902344 63 112.839844 C 62.90625 112.765625 62.871094 112.644531 62.921875 112.535156 C 62.992188 112.429688 63.121094 112.394531 63.214844 112.457031 "/>
<path style=" stroke:none;fill-rule:evenodd;fill:rgb(100%,100%,100%);fill-opacity:1;" d="M 64.269531 113.085938 C 64.167969 113.042969 64.054688 113.070313 63.992188 113.167969 C 63.933594 113.265625 63.96875 113.390625 64.0625 113.453125 C 64.160156 113.507813 64.289063 113.46875 64.339844 113.363281 C 64.390625 113.265625 64.355469 113.148438 64.269531 113.085938 "/>
<path style=" stroke:none;fill-rule:evenodd;fill:rgb(100%,100%,100%);fill-opacity:1;" d="M 65.246094 113.710938 C 65.175781 113.664063 65.089844 113.691406 65.03125 113.753906 C 64.996094 113.851563 65.011719 113.933594 65.101563 113.984375 C 65.167969 114.023438 65.273438 114.003906 65.316406 113.921875 C 65.351563 113.851563 65.324219 113.746094 65.246094 113.710938 "/>
<path style=" stroke:none;fill-rule:evenodd;fill:rgb(100%,100%,100%);fill-opacity:1;" d="M 69.453125 110.640625 C 69.496094 110.660156 69.523438 110.730469 69.480469 110.773438 C 69.460938 110.828125 69.394531 110.835938 69.351563 110.808594 C 69.296875 110.792969 69.289063 110.722656 69.324219 110.667969 C 69.351563 110.621094 69.402344 110.605469 69.453125 110.640625 "/>
<path style=" stroke:none;fill-rule:evenodd;fill:rgb(100%,100%,100%);fill-opacity:1;" d="M 62.578125 113.558594 C 62.664063 113.621094 62.699219 113.71875 62.65625 113.808594 C 62.59375 113.898438 62.492188 113.933594 62.394531 113.886719 C 62.308594 113.828125 62.28125 113.71875 62.34375 113.640625 C 62.386719 113.542969 62.5 113.515625 62.578125 113.558594 "/>
<path style=" stroke:none;fill-rule:evenodd;fill:rgb(100%,100%,100%);fill-opacity:1;" d="M 63.621094 114.226563 C 63.691406 114.28125 63.707031 114.359375 63.675781 114.421875 C 63.648438 114.503906 63.554688 114.527344 63.492188 114.484375 C 63.414063 114.429688 63.390625 114.351563 63.441406 114.296875 C 63.484375 114.207031 63.5625 114.191406 63.621094 114.226563 "/>
<path style=" stroke:none;fill-rule:evenodd;fill:rgb(100%,100%,100%);fill-opacity:1;" d="M 64.605469 114.886719 C 64.660156 114.921875 64.667969 114.980469 64.640625 115.027344 C 64.625 115.0625 64.554688 115.105469 64.511719 115.0625 C 64.46875 115.035156 64.445313 114.980469 64.476563 114.929688 C 64.503906 114.886719 64.554688 114.859375 64.605469 114.886719 "/>
<path style=" stroke:none;fill-rule:evenodd;fill:rgb(100%,100%,100%);fill-opacity:1;" d="M 60.980469 113.960938 C 61.039063 113.984375 61.066406 114.066406 61.039063 114.128906 C 60.988281 114.171875 60.925781 114.191406 60.867188 114.164063 C 60.816406 114.128906 60.789063 114.058594 60.824219 113.996094 C 60.859375 113.933594 60.925781 113.921875 60.980469 113.960938 "/>
<path style=" stroke:none;fill-rule:evenodd;fill:rgb(100%,100%,100%);fill-opacity:1;" d="M 59.976563 113.308594 C 60.070313 113.355469 60.097656 113.488281 60.046875 113.578125 C 59.984375 113.675781 59.863281 113.710938 59.777344 113.65625 C 59.683594 113.59375 59.65625 113.480469 59.710938 113.371094 C 59.761719 113.292969 59.882813 113.257813 59.976563 113.308594 "/>
<path style=" stroke:none;fill-rule:evenodd;fill:rgb(100%,100%,100%);fill-opacity:1;" d="M 60.574219 112.207031 C 60.726563 112.296875 60.773438 112.5 60.683594 112.652344 C 60.589844 112.8125 60.417969 112.855469 60.253906 112.757813 C 60.105469 112.679688 60.046875 112.484375 60.140625 112.324219 C 60.234375 112.179688 60.425781 112.117188 60.574219 112.207031 "/>
<path style=" stroke:none;fill-rule:evenodd;fill:rgb(100%,100%,100%);fill-opacity:1;" d="M 58.871094 112.632813 C 58.964844 112.679688 59 112.8125 58.929688 112.902344 C 58.890625 112.988281 58.757813 113.035156 58.671875 112.972656 C 58.585938 112.910156 58.535156 112.792969 58.59375 112.695313 C 58.65625 112.597656 58.769531 112.5625 58.871094 112.632813 "/>
<path style=" stroke:none;fill-rule:evenodd;fill:rgb(100%,100%,100%);fill-opacity:1;" d="M 57.195313 113.132813 C 57.246094 113.160156 57.273438 113.230469 57.238281 113.292969 C 57.203125 113.355469 57.125 113.363281 57.074219 113.335938 C 57.023438 113.308594 57.003906 113.222656 57.03125 113.167969 C 57.066406 113.113281 57.132813 113.078125 57.195313 113.132813 "/>
<path style=" stroke:none;fill-rule:evenodd;fill:rgb(100%,100%,100%);fill-opacity:1;" d="M 57.835938 112.03125 C 57.921875 112.082031 57.945313 112.207031 57.894531 112.304688 C 57.84375 112.402344 57.722656 112.4375 57.628906 112.375 C 57.53125 112.324219 57.507813 112.199219 57.558594 112.089844 C 57.617188 112.003906 57.730469 111.976563 57.835938 112.03125 "/>
<path style=" stroke:none;fill-rule:evenodd;fill:rgb(100%,100%,100%);fill-opacity:1;" d="M 56.726563 111.328125 C 56.832031 111.386719 56.875 111.523438 56.816406 111.636719 C 56.746094 111.734375 56.617188 111.789063 56.523438 111.71875 C 56.417969 111.65625 56.382813 111.511719 56.445313 111.414063 C 56.488281 111.308594 56.625 111.265625 56.726563 111.328125 "/>
<path style=" stroke:none;fill-rule:evenodd;fill:rgb(100%,100%,100%);fill-opacity:1;" d="M 56.105469 112.484375 C 56.054688 112.457031 55.976563 112.464844 55.941406 112.519531 C 55.917969 112.582031 55.933594 112.660156 55.992188 112.6875 C 56.046875 112.722656 56.113281 112.707031 56.140625 112.652344 C 56.183594 112.582031 56.167969 112.507813 56.105469 112.484375 "/>
<path style=" stroke:none;fill-rule:evenodd;fill:rgb(100%,100%,100%);fill-opacity:1;" d="M 55.71875 110.773438 C 55.804688 110.828125 55.828125 110.933594 55.785156 111.015625 C 55.734375 111.09375 55.621094 111.148438 55.527344 111.085938 C 55.449219 111.03125 55.433594 110.925781 55.476563 110.835938 C 55.519531 110.746094 55.632813 110.722656 55.71875 110.773438 "/>
<path style=" stroke:none;fill-rule:evenodd;fill:rgb(100%,100%,100%);fill-opacity:1;" d="M 56.304688 109.714844 C 56.445313 109.796875 56.476563 109.972656 56.410156 110.105469 C 56.324219 110.242188 56.167969 110.292969 56.039063 110.207031 C 55.898438 110.132813 55.847656 109.964844 55.925781 109.824219 C 56.003906 109.6875 56.175781 109.644531 56.304688 109.714844 "/>
<path style=" stroke:none;fill-rule:evenodd;fill:rgb(100%,100%,100%);fill-opacity:1;" d="M 55.15625 109.128906 C 55.25 109.183594 55.277344 109.304688 55.21875 109.394531 C 55.171875 109.503906 55.035156 109.527344 54.957031 109.484375 C 54.855469 109.414063 54.820313 109.304688 54.871094 109.199219 C 54.929688 109.101563 55.050781 109.074219 55.15625 109.128906 "/>
<path style=" stroke:none;fill-rule:evenodd;fill:rgb(100%,100%,100%);fill-opacity:1;" d="M 54.558594 110.132813 C 54.628906 110.167969 54.644531 110.25 54.613281 110.339844 C 54.585938 110.390625 54.492188 110.417969 54.429688 110.382813 C 54.359375 110.339844 54.34375 110.242188 54.378906 110.1875 C 54.421875 110.125 54.5 110.097656 54.558594 110.132813 "/>
<path style=" stroke:none;fill-rule:evenodd;fill:rgb(100%,100%,100%);fill-opacity:1;" d="M 53.550781 109.609375 C 53.59375 109.652344 53.601563 109.714844 53.574219 109.75 C 53.558594 109.804688 53.488281 109.824219 53.4375 109.796875 C 53.394531 109.769531 53.375 109.707031 53.410156 109.652344 C 53.429688 109.609375 53.496094 109.589844 53.550781 109.609375 "/>
<path style=" stroke:none;fill-rule:evenodd;fill:rgb(100%,100%,100%);fill-opacity:1;" d="M 54.101563 108.542969 C 54.179688 108.59375 54.207031 108.710938 54.171875 108.800781 C 54.117188 108.890625 54.007813 108.914063 53.914063 108.863281 C 53.835938 108.808594 53.808594 108.703125 53.859375 108.613281 C 53.894531 108.53125 54.015625 108.496094 54.101563 108.542969 "/>
<path style=" stroke:none;fill-rule:evenodd;fill:rgb(100%,100%,100%);fill-opacity:1;" d="M 52.433594 108.898438 C 52.484375 108.925781 52.503906 108.984375 52.460938 109.023438 C 52.445313 109.074219 52.382813 109.09375 52.347656 109.074219 C 52.289063 109.03125 52.28125 108.984375 52.296875 108.933594 C 52.332031 108.890625 52.390625 108.871094 52.433594 108.898438 "/>
<path style=" stroke:none;fill-rule:evenodd;fill:rgb(100%,100%,100%);fill-opacity:1;" d="M 52.988281 107.929688 C 53.039063 107.964844 53.066406 108.050781 53.03125 108.132813 C 52.996094 108.1875 52.902344 108.222656 52.839844 108.167969 C 52.773438 108.132813 52.753906 108.042969 52.789063 107.980469 C 52.832031 107.910156 52.910156 107.890625 52.988281 107.929688 "/>
<path style=" stroke:none;fill-rule:evenodd;fill:rgb(100%,100%,100%);fill-opacity:1;" d="M 51.347656 108.265625 C 51.398438 108.300781 51.40625 108.355469 51.390625 108.398438 C 51.363281 108.460938 51.285156 108.480469 51.242188 108.445313 C 51.207031 108.40625 51.183594 108.355469 51.21875 108.308594 C 51.234375 108.257813 51.292969 108.238281 51.347656 108.265625 "/>
<path style=" stroke:none;fill-rule:evenodd;fill:rgb(100%,100%,100%);fill-opacity:1;" d="M 51.898438 107.3125 C 51.960938 107.347656 51.976563 107.421875 51.953125 107.484375 C 51.925781 107.535156 51.847656 107.554688 51.785156 107.527344 C 51.734375 107.5 51.71875 107.410156 51.742188 107.359375 C 51.777344 107.304688 51.847656 107.269531 51.898438 107.3125 "/>
<path style=" stroke:none;fill-rule:evenodd;fill:rgb(100%,100%,100%);fill-opacity:1;" d="M 50.929688 106.726563 C 50.972656 106.761719 50.984375 106.824219 50.964844 106.867188 C 50.929688 106.90625 50.871094 106.929688 50.828125 106.90625 C 50.785156 106.878906 50.769531 106.824219 50.792969 106.773438 C 50.8125 106.71875 50.878906 106.699219 50.929688 106.726563 "/>
<path style=" stroke:none;fill-rule:evenodd;fill:rgb(100%,100%,100%);fill-opacity:1;" d="M 55.785156 107.945313 C 55.917969 108.042969 55.960938 108.222656 55.882813 108.34375 C 55.804688 108.488281 55.640625 108.53125 55.5 108.445313 C 55.371094 108.371094 55.328125 108.195313 55.40625 108.0625 C 55.476563 107.929688 55.648438 107.882813 55.785156 107.945313 "/>
<path style=" stroke:none;fill-rule:evenodd;fill:rgb(100%,100%,100%);fill-opacity:1;" d="M 54.777344 107.402344 C 54.863281 107.464844 54.90625 107.597656 54.84375 107.707031 C 54.785156 107.820313 54.644531 107.855469 54.550781 107.777344 C 54.449219 107.722656 54.40625 107.582031 54.472656 107.484375 C 54.515625 107.367188 54.664063 107.339844 54.777344 107.402344 "/>
<path style=" stroke:none;fill-rule:evenodd;fill:rgb(100%,100%,100%);fill-opacity:1;" d="M 53.644531 106.832031 C 53.714844 106.867188 53.738281 106.96875 53.695313 107.046875 C 53.652344 107.117188 53.558594 107.152344 53.488281 107.101563 C 53.410156 107.066406 53.386719 106.949219 53.417969 106.886719 C 53.472656 106.816406 53.566406 106.78125 53.644531 106.832031 "/>
<path style=" stroke:none;fill-rule:evenodd;fill:rgb(100%,100%,100%);fill-opacity:1;" d="M 52.503906 106.203125 C 52.554688 106.226563 52.574219 106.28125 52.546875 106.335938 C 52.511719 106.390625 52.453125 106.40625 52.410156 106.371094 C 52.367188 106.351563 52.347656 106.273438 52.375 106.238281 C 52.402344 106.191406 52.453125 106.175781 52.503906 106.203125 "/>
<path style=" stroke:none;fill-rule:evenodd;fill:rgb(100%,100%,100%);fill-opacity:1;" d="M 51.589844 105.675781 C 51.621094 105.695313 51.640625 105.765625 51.621094 105.820313 C 51.589844 105.863281 51.542969 105.871094 51.484375 105.847656 C 51.441406 105.828125 51.425781 105.757813 51.449219 105.703125 C 51.46875 105.660156 51.542969 105.652344 51.589844 105.675781 "/>
<path style=" stroke:none;fill-rule:evenodd;fill:rgb(100%,100%,100%);fill-opacity:1;" d="M 51.589844 102.820313 C 51.621094 102.847656 51.632813 102.894531 51.613281 102.925781 C 51.589844 102.964844 51.542969 102.988281 51.492188 102.953125 C 51.457031 102.9375 51.449219 102.894531 51.46875 102.855469 C 51.484375 102.8125 51.542969 102.785156 51.589844 102.820313 "/>
<path style=" stroke:none;fill-rule:evenodd;fill:rgb(100%,100%,100%);fill-opacity:1;" d="M 55.414063 106.238281 C 55.578125 106.335938 55.632813 106.558594 55.527344 106.710938 C 55.441406 106.867188 55.242188 106.921875 55.085938 106.84375 C 54.914063 106.734375 54.863281 106.53125 54.957031 106.371094 C 55.042969 106.203125 55.261719 106.148438 55.414063 106.238281 "/>
<path style=" stroke:none;fill-rule:evenodd;fill:rgb(100%,100%,100%);fill-opacity:1;" d="M 54.242188 105.683594 C 54.34375 105.738281 54.378906 105.871094 54.316406 105.996094 C 54.25 106.09375 54.117188 106.121094 54.023438 106.070313 C 53.914063 106.015625 53.878906 105.871094 53.957031 105.765625 C 54 105.660156 54.128906 105.613281 54.242188 105.683594 "/>
<path style=" stroke:none;fill-rule:evenodd;fill:rgb(100%,100%,100%);fill-opacity:1;" d="M 53.160156 105.125 C 53.210938 105.167969 53.238281 105.25 53.203125 105.332031 C 53.160156 105.390625 53.074219 105.410156 53.015625 105.382813 C 52.945313 105.339844 52.925781 105.242188 52.96875 105.1875 C 53.003906 105.105469 53.074219 105.097656 53.160156 105.125 "/>
<path style=" stroke:none;fill-rule:evenodd;fill:rgb(100%,100%,100%);fill-opacity:1;" d="M 52.167969 104.566406 C 52.21875 104.59375 52.234375 104.671875 52.203125 104.734375 C 52.175781 104.785156 52.097656 104.8125 52.039063 104.769531 C 51.976563 104.742188 51.96875 104.664063 52.003906 104.609375 C 52.027344 104.554688 52.097656 104.53125 52.167969 104.566406 "/>
<path style=" stroke:none;fill-rule:evenodd;fill:rgb(100%,100%,100%);fill-opacity:1;" d="M 57.054688 105.695313 C 57.230469 105.800781 57.289063 106.042969 57.1875 106.21875 C 57.082031 106.40625 56.859375 106.46875 56.667969 106.371094 C 56.488281 106.253906 56.445313 106.023438 56.539063 105.835938 C 56.640625 105.652344 56.875 105.589844 57.054688 105.695313 "/>
<path style=" stroke:none;fill-rule:evenodd;fill:rgb(100%,100%,100%);fill-opacity:1;" d="M 56.003906 105.230469 C 56.132813 105.320313 56.175781 105.480469 56.097656 105.613281 C 56.039063 105.757813 55.855469 105.808594 55.726563 105.730469 C 55.597656 105.652344 55.5625 105.472656 55.621094 105.339844 C 55.691406 105.195313 55.863281 105.160156 56.003906 105.230469 "/>
<path style=" stroke:none;fill-rule:evenodd;fill:rgb(100%,100%,100%);fill-opacity:1;" d="M 54.84375 104.59375 C 54.957031 104.652344 54.992188 104.785156 54.921875 104.902344 C 54.863281 105.011719 54.722656 105.035156 54.636719 104.984375 C 54.527344 104.921875 54.492188 104.777344 54.558594 104.671875 C 54.613281 104.566406 54.75 104.53125 54.84375 104.59375 "/>
<path style=" stroke:none;fill-rule:evenodd;fill:rgb(100%,100%,100%);fill-opacity:1;" d="M 53.800781 104.023438 C 53.886719 104.074219 53.914063 104.199219 53.859375 104.308594 C 53.816406 104.386719 53.6875 104.421875 53.59375 104.367188 C 53.507813 104.316406 53.472656 104.191406 53.523438 104.09375 C 53.585938 103.996094 53.695313 103.960938 53.800781 104.023438 "/>
<path style=" stroke:none;fill-rule:evenodd;fill:rgb(100%,100%,100%);fill-opacity:1;" d="M 52.761719 103.453125 C 52.839844 103.496094 52.859375 103.585938 52.824219 103.675781 C 52.773438 103.746094 52.675781 103.765625 52.609375 103.726563 C 52.539063 103.683594 52.503906 103.578125 52.554688 103.515625 C 52.589844 103.433594 52.683594 103.398438 52.761719 103.453125 "/>
<path style=" stroke:none;fill-rule:evenodd;fill:rgb(100%,100%,100%);fill-opacity:1;" d="M 56.546875 104.246094 C 56.617188 104.308594 56.640625 104.378906 56.609375 104.441406 C 56.574219 104.519531 56.476563 104.539063 56.417969 104.503906 C 56.347656 104.449219 56.324219 104.378906 56.375 104.308594 C 56.402344 104.234375 56.476563 104.210938 56.546875 104.246094 "/>
<path style=" stroke:none;fill-rule:evenodd;fill:rgb(100%,100%,100%);fill-opacity:1;" d="M 55.433594 103.578125 C 55.492188 103.613281 55.511719 103.703125 55.476563 103.753906 C 55.449219 103.808594 55.371094 103.835938 55.3125 103.792969 C 55.261719 103.753906 55.242188 103.691406 55.277344 103.621094 C 55.304688 103.578125 55.382813 103.550781 55.433594 103.578125 "/>
<path style=" stroke:none;fill-rule:evenodd;fill:rgb(100%,100%,100%);fill-opacity:1;" d="M 54.371094 102.945313 C 54.421875 102.980469 54.429688 103.042969 54.40625 103.089844 C 54.386719 103.140625 54.316406 103.160156 54.273438 103.125 C 54.222656 103.097656 54.207031 103.042969 54.230469 102.988281 C 54.265625 102.9375 54.316406 102.917969 54.371094 102.945313 "/>
<path style=" stroke:none;fill-rule:evenodd;fill:rgb(100%,100%,100%);fill-opacity:1;" d="M 53.375 102.394531 C 53.417969 102.410156 53.4375 102.484375 53.417969 102.527344 C 53.386719 102.574219 53.332031 102.582031 53.273438 102.5625 C 53.238281 102.535156 53.210938 102.464844 53.246094 102.429688 C 53.265625 102.375 53.34375 102.359375 53.375 102.394531 "/>
<path style=" stroke:none;fill-rule:evenodd;fill:rgb(100%,100%,100%);fill-opacity:1;" d="M 53.957031 101.414063 C 53.988281 101.441406 54.015625 101.503906 53.988281 101.550781 C 53.964844 101.601563 53.894531 101.621094 53.851563 101.59375 C 53.808594 101.566406 53.792969 101.503906 53.816406 101.453125 C 53.84375 101.40625 53.894531 101.390625 53.957031 101.414063 "/>
<path style=" stroke:none;fill-rule:evenodd;fill:rgb(100%,100%,100%);fill-opacity:1;" d="M 54.941406 101.984375 C 55 102.019531 55.019531 102.082031 54.984375 102.144531 C 54.957031 102.207031 54.871094 102.226563 54.820313 102.199219 C 54.769531 102.164063 54.75 102.082031 54.785156 102.03125 C 54.808594 101.957031 54.878906 101.941406 54.941406 101.984375 "/>
<path style=" stroke:none;fill-rule:evenodd;fill:rgb(100%,100%,100%);fill-opacity:1;" d="M 56.046875 102.582031 C 56.113281 102.625 56.132813 102.730469 56.089844 102.820313 C 56.054688 102.894531 55.960938 102.910156 55.882813 102.875 C 55.8125 102.832031 55.785156 102.722656 55.828125 102.652344 C 55.863281 102.574219 55.96875 102.535156 56.046875 102.582031 "/>
<path style=" stroke:none;fill-rule:evenodd;fill:rgb(100%,100%,100%);fill-opacity:1;" d="M 57.117188 103.238281 C 57.203125 103.273438 57.230469 103.371094 57.1875 103.453125 C 57.132813 103.53125 57.046875 103.558594 56.96875 103.515625 C 56.894531 103.480469 56.867188 103.363281 56.910156 103.292969 C 56.945313 103.214844 57.054688 103.1875 57.117188 103.238281 "/>
<path style=" stroke:none;fill-rule:evenodd;fill:rgb(100%,100%,100%);fill-opacity:1;" d="M 58.144531 103.78125 C 58.230469 103.851563 58.25 103.941406 58.207031 104.03125 C 58.152344 104.121094 58.050781 104.164063 57.957031 104.109375 C 57.878906 104.058594 57.851563 103.941406 57.894531 103.863281 C 57.9375 103.765625 58.058594 103.738281 58.144531 103.78125 "/>
<path style=" stroke:none;fill-rule:evenodd;fill:rgb(100%,100%,100%);fill-opacity:1;" d="M 59.304688 104.414063 C 59.433594 104.492188 59.46875 104.644531 59.398438 104.769531 C 59.328125 104.902344 59.164063 104.9375 59.042969 104.867188 C 58.921875 104.785156 58.890625 104.628906 58.957031 104.511719 C 59.027344 104.386719 59.171875 104.34375 59.304688 104.414063 "/>
<path style=" stroke:none;fill-rule:evenodd;fill:rgb(100%,100%,100%);fill-opacity:1;" d="M 60.296875 105.011719 C 60.425781 105.070313 60.46875 105.242188 60.382813 105.367188 C 60.324219 105.488281 60.15625 105.535156 60.035156 105.453125 C 59.925781 105.382813 59.882813 105.222656 59.953125 105.105469 C 60.027344 104.972656 60.167969 104.929688 60.296875 105.011719 "/>
<path style=" stroke:none;fill-rule:evenodd;fill:rgb(100%,100%,100%);fill-opacity:1;" d="M 56.609375 101.503906 C 56.660156 101.53125 56.683594 101.59375 56.640625 101.664063 C 56.617188 101.71875 56.546875 101.726563 56.488281 101.699219 C 56.445313 101.671875 56.417969 101.59375 56.445313 101.539063 C 56.476563 101.488281 56.546875 101.460938 56.609375 101.503906 "/>
<path style=" stroke:none;fill-rule:evenodd;fill:rgb(21.598816%,34.498596%,59.199524%);fill-opacity:1;" d="M 58.1875 107.339844 C 58.273438 107.394531 58.308594 107.511719 58.25 107.597656 C 58.199219 107.695313 58.085938 107.722656 58 107.679688 C 57.902344 107.617188 57.878906 107.5 57.921875 107.410156 C 57.972656 107.3125 58.09375 107.277344 58.1875 107.339844 "/>
<path style=" stroke:none;fill-rule:evenodd;fill:rgb(21.598816%,34.498596%,59.199524%);fill-opacity:1;" d="M 57.636719 108.371094 C 57.722656 108.433594 57.746094 108.542969 57.707031 108.648438 C 57.660156 108.726563 57.53125 108.753906 57.445313 108.710938 C 57.359375 108.664063 57.316406 108.53125 57.386719 108.445313 C 57.4375 108.355469 57.539063 108.320313 57.636719 108.371094 "/>
<path style=" stroke:none;fill-rule:evenodd;fill:rgb(21.598816%,34.498596%,59.199524%);fill-opacity:1;" d="M 59.234375 108.089844 C 59.304688 108.140625 59.328125 108.230469 59.285156 108.308594 C 59.242188 108.371094 59.148438 108.398438 59.078125 108.355469 C 59.019531 108.320313 58.972656 108.222656 59.027344 108.148438 C 59.0625 108.078125 59.15625 108.050781 59.234375 108.089844 "/>
<path style=" stroke:none;fill-rule:evenodd;fill:rgb(21.598816%,34.498596%,59.199524%);fill-opacity:1;" d="M 58.671875 109.101563 C 58.734375 109.148438 58.75 109.234375 58.714844 109.324219 C 58.671875 109.386719 58.585938 109.414063 58.507813 109.378906 C 58.4375 109.332031 58.414063 109.226563 58.457031 109.164063 C 58.5 109.085938 58.585938 109.066406 58.671875 109.101563 "/>
<path style=" stroke:none;fill-rule:evenodd;fill:rgb(21.598816%,34.498596%,59.199524%);fill-opacity:1;" d="M 60.289063 108.683594 C 60.347656 108.71875 60.375 108.816406 60.332031 108.898438 C 60.296875 108.96875 60.191406 108.984375 60.140625 108.941406 C 60.082031 108.90625 60.035156 108.808594 60.089844 108.738281 C 60.125 108.675781 60.21875 108.648438 60.289063 108.683594 "/>
<path style=" stroke:none;fill-rule:evenodd;fill:rgb(21.598816%,34.498596%,59.199524%);fill-opacity:1;" d="M 59.71875 109.699219 C 59.8125 109.742188 59.847656 109.859375 59.785156 109.964844 C 59.734375 110.046875 59.632813 110.070313 59.527344 110.019531 C 59.449219 109.972656 59.414063 109.847656 59.46875 109.75 C 59.511719 109.664063 59.640625 109.636719 59.71875 109.699219 "/>
<path style=" stroke:none;fill-rule:evenodd;fill:rgb(21.598816%,34.498596%,59.199524%);fill-opacity:1;" d="M 60.726563 110.277344 C 60.816406 110.339844 60.847656 110.464844 60.789063 110.550781 C 60.746094 110.648438 60.632813 110.675781 60.53125 110.621094 C 60.453125 110.570313 60.425781 110.453125 60.46875 110.355469 C 60.511719 110.257813 60.640625 110.230469 60.726563 110.277344 "/>
<path style=" stroke:none;fill-rule:evenodd;fill:rgb(21.598816%,34.498596%,59.199524%);fill-opacity:1;" d="M 61.386719 109.34375 C 61.480469 109.386719 61.523438 109.511719 61.464844 109.601563 C 61.402344 109.699219 61.296875 109.722656 61.203125 109.664063 C 61.117188 109.609375 61.082031 109.503906 61.132813 109.40625 C 61.175781 109.316406 61.296875 109.28125 61.386719 109.34375 "/>
<path style=" stroke:none;fill-rule:evenodd;fill:rgb(99.606323%,74.508667%,6.274414%);fill-opacity:1;" d="M 64.867188 79.121094 L 84.394531 79.121094 L 67.957031 99.066406 C 61.507813 94.871094 54.832031 95.734375 49.257813 98.703125 L 64.867188 79.121094 "/>
<path style=" stroke:none;fill-rule:evenodd;fill:rgb(21.598816%,34.498596%,59.199524%);fill-opacity:1;" d="M 98.703125 94.605469 C 96.585938 95.710938 95.113281 96.144531 93.390625 96.144531 C 90.398438 96.144531 88.800781 94.449219 89.265625 91.828125 C 89.738281 89.15625 91.875 87.515625 94.871094 87.515625 C 96.589844 87.515625 98 88.003906 99.523438 89.132813 L 100.429688 84.019531 C 98.917969 83.25 96.996094 82.839844 94.75 82.839844 C 88.511719 82.839844 84.195313 86.796875 83.289063 91.90625 C 82.578125 95.914063 84.15625 100.820313 91.265625 100.820313 C 93.609375 100.820313 95.921875 100.308594 97.875 99.28125 L 98.703125 94.605469 "/>
<path style=" stroke:none;fill-rule:evenodd;fill:rgb(21.598816%,34.498596%,59.199524%);fill-opacity:1;" d="M 99.804688 91.828125 C 98.945313 96.683594 101.328125 100.820313 107.464844 100.820313 C 113.953125 100.820313 117.523438 96.300781 118.3125 91.828125 C 119.113281 87.308594 117.0625 82.839844 110.652344 82.839844 C 104.316406 82.839844 100.628906 87.179688 99.804688 91.828125 Z M 105.765625 91.828125 C 106.183594 89.46875 107.695313 87.976563 109.742188 87.976563 C 111.761719 87.976563 112.769531 89.46875 112.351563 91.828125 C 111.933594 94.195313 110.394531 95.683594 108.375 95.683594 C 106.328125 95.683594 105.347656 94.195313 105.765625 91.828125 "/>
<path style=" stroke:none;fill-rule:evenodd;fill:rgb(21.598816%,34.498596%,59.199524%);fill-opacity:1;" d="M 117.34375 100.589844 L 123.308594 100.589844 L 124.605469 93.269531 L 126.226563 93.269531 C 127.847656 93.269531 128.488281 94.988281 129.203125 97.996094 L 129.816406 100.589844 L 135.679688 100.589844 L 134.480469 95.964844 C 133.925781 93.886719 133.488281 92.679688 132.363281 92.136719 C 134.328125 91.316406 135.496094 89.929688 135.824219 88.078125 C 136.3125 85.328125 134.742188 83.070313 130.152344 83.070313 L 120.449219 83.070313 Z M 125.082031 90.570313 L 125.910156 85.894531 L 127.65625 85.894531 C 129.527344 85.894531 130.4375 86.667969 130.164063 88.207031 C 129.890625 89.75 128.625 90.570313 126.703125 90.570313 L 125.082031 90.570313 "/>
<path style=" stroke:none;fill-rule:evenodd;fill:rgb(21.598816%,34.498596%,59.199524%);fill-opacity:1;" d="M 135.273438 100.589844 L 141.234375 100.589844 L 142.53125 93.269531 L 144.152344 93.269531 C 145.773438 93.269531 146.417969 94.988281 147.132813 97.996094 L 147.746094 100.589844 L 153.609375 100.589844 L 152.40625 95.964844 C 151.851563 93.886719 151.417969 92.679688 150.289063 92.136719 C 152.257813 91.316406 153.425781 89.929688 153.753906 88.078125 C 154.242188 85.328125 152.671875 83.070313 148.082031 83.070313 L 138.378906 83.070313 Z M 143.011719 90.570313 L 143.839844 85.894531 L 145.585938 85.894531 C 147.453125 85.894531 148.367188 86.667969 148.09375 88.207031 C 147.820313 89.75 146.550781 90.570313 144.632813 90.570313 L 143.011719 90.570313 "/>
<path style=" stroke:none;fill-rule:evenodd;fill:rgb(21.598816%,34.498596%,59.199524%);fill-opacity:1;" d="M 153.175781 100.589844 L 166.023438 100.589844 L 166.679688 96.890625 L 159.792969 96.890625 L 160.386719 93.550781 L 166.597656 93.550781 L 167.253906 89.851563 L 161.039063 89.851563 L 161.585938 86.769531 L 168.371094 86.769531 L 169.027344 83.070313 L 156.277344 83.070313 L 153.175781 100.589844 "/>
<path style=" stroke:none;fill-rule:evenodd;fill:rgb(21.598816%,34.498596%,59.199524%);fill-opacity:1;" d="M 167.5625 91.828125 C 166.699219 96.683594 169.085938 100.820313 175.222656 100.820313 C 181.710938 100.820313 185.277344 96.300781 186.070313 91.828125 C 186.871094 87.308594 184.820313 82.839844 178.410156 82.839844 C 172.070313 82.839844 168.382813 87.179688 167.5625 91.828125 Z M 173.523438 91.828125 C 173.941406 89.46875 175.453125 87.976563 177.496094 87.976563 C 179.519531 87.976563 180.527344 89.46875 180.109375 91.828125 C 179.691406 94.195313 178.152344 95.683594 176.132813 95.683594 C 174.085938 95.683594 173.105469 94.195313 173.523438 91.828125 "/>
<path style=" stroke:none;fill-rule:evenodd;fill:rgb(21.598816%,34.498596%,59.199524%);fill-opacity:1;" d="M 86.8125 104.707031 L 84.691406 104.707031 L 80.085938 113.613281 L 82.292969 113.613281 L 83.203125 111.691406 L 86.121094 111.691406 L 86.410156 113.613281 L 88.464844 113.613281 Z M 85.433594 106.550781 L 85.460938 106.550781 L 85.957031 110.441406 L 83.78125 110.441406 L 85.433594 106.550781 "/>
<path style=" stroke:none;fill-rule:evenodd;fill:rgb(21.598816%,34.498596%,59.199524%);fill-opacity:1;" d="M 93.328125 104.824219 L 92.019531 113.613281 L 94.015625 113.613281 L 94.539063 110.054688 L 94.964844 110.054688 C 95.945313 110.054688 96.164063 110.246094 96.964844 111.832031 L 97.859375 113.613281 L 100.0625 113.613281 L 98.617188 110.816406 C 98.355469 110.324219 98.136719 109.988281 97.625 109.785156 L 97.625 109.757813 C 99.058594 109.511719 99.71875 108.535156 99.71875 107.464844 C 99.71875 106.382813 98.933594 104.824219 96.550781 104.824219 Z M 95.105469 106.292969 L 96.082031 106.292969 C 97.074219 106.292969 97.652344 106.71875 97.652344 107.414063 C 97.652344 108.058594 97.089844 108.6875 95.738281 108.6875 L 94.746094 108.6875 L 95.105469 106.292969 "/>
<path style=" stroke:none;fill-rule:evenodd;fill:rgb(21.598816%,34.498596%,59.199524%);fill-opacity:1;" d="M 112.835938 105.027344 C 112.089844 104.824219 111.140625 104.707031 110.105469 104.707031 C 105.175781 104.707031 103.339844 107.542969 103.339844 109.757813 C 103.339844 111.679688 104.734375 113.726563 108.644531 113.726563 C 109.652344 113.726563 111.03125 113.613281 111.566406 113.46875 L 112.242188 108.984375 L 108.523438 108.984375 L 108.316406 110.378906 L 110.039063 110.378906 L 109.804688 111.9375 C 109.253906 112.066406 108.910156 112.105469 108.398438 112.105469 C 106.71875 112.105469 105.410156 111.316406 105.410156 109.695313 C 105.410156 107.683594 107.351563 106.332031 110.105469 106.332031 C 110.960938 106.332031 111.679688 106.421875 112.601563 106.652344 L 112.835938 105.027344 "/>
<path style=" stroke:none;fill-rule:evenodd;fill:rgb(21.598816%,34.498596%,59.199524%);fill-opacity:1;" d="M 123 104.824219 L 117.132813 104.824219 L 115.808594 113.613281 L 122.683594 113.613281 L 122.90625 112.144531 L 118.027344 112.144531 L 118.371094 109.835938 L 121.773438 109.835938 L 121.996094 108.367188 L 118.59375 108.367188 L 118.910156 106.292969 L 122.78125 106.292969 L 123 104.824219 "/>
<path style=" stroke:none;fill-rule:evenodd;fill:rgb(21.598816%,34.498596%,59.199524%);fill-opacity:1;" d="M 136.179688 104.824219 L 134.183594 104.824219 L 133.34375 110.558594 L 133.316406 110.558594 L 129.527344 104.824219 L 127.527344 104.824219 L 126.203125 113.613281 L 128.203125 113.613281 L 129.085938 107.65625 L 129.113281 107.65625 L 132.972656 113.613281 L 134.871094 113.613281 L 136.179688 104.824219 "/>
<path style=" stroke:none;fill-rule:evenodd;fill:rgb(21.598816%,34.498596%,59.199524%);fill-opacity:1;" d="M 147.902344 104.824219 L 139.867188 104.824219 L 139.648438 106.292969 L 142.625 106.292969 L 141.523438 113.613281 L 143.519531 113.613281 L 144.621094 106.292969 L 147.679688 106.292969 L 147.902344 104.824219 "/>
<path style=" stroke:none;fill-rule:evenodd;fill:rgb(21.598816%,34.498596%,59.199524%);fill-opacity:1;" d="M 153.546875 104.824219 L 151.546875 104.824219 L 150.226563 113.613281 L 152.222656 113.613281 L 153.546875 104.824219 "/>
<path style=" stroke:none;fill-rule:evenodd;fill:rgb(21.598816%,34.498596%,59.199524%);fill-opacity:1;" d="M 166.683594 104.824219 L 164.6875 104.824219 L 163.847656 110.558594 L 163.820313 110.558594 L 160.03125 104.824219 L 158.03125 104.824219 L 156.710938 113.613281 L 158.707031 113.613281 L 159.589844 107.65625 L 159.617188 107.65625 L 163.476563 113.613281 L 165.375 113.613281 L 166.683594 104.824219 "/>
<path style=" stroke:none;fill-rule:evenodd;fill:rgb(21.598816%,34.498596%,59.199524%);fill-opacity:1;" d="M 180.210938 108.714844 C 180.210938 106.355469 178.324219 104.707031 175.582031 104.707031 C 172.398438 104.707031 170.054688 106.792969 170.054688 109.640625 C 170.054688 112.050781 172.066406 113.726563 174.796875 113.726563 C 177.910156 113.726563 180.210938 111.742188 180.210938 108.714844 Z M 178.144531 108.84375 C 178.144531 110.660156 176.671875 112.105469 174.808594 112.105469 C 173.226563 112.105469 172.121094 111.058594 172.121094 109.550781 C 172.121094 107.785156 173.625 106.332031 175.441406 106.332031 C 177.015625 106.332031 178.144531 107.386719 178.144531 108.84375 "/>
</g>
</svg>
