<?xml version="1.0" encoding="UTF-8"?>
<svg xmlns="http://www.w3.org/2000/svg" xmlns:xlink="http://www.w3.org/1999/xlink" width="475.21pt" height="208.767pt" viewBox="0 0 475.21 208.767" version="1.1">
<defs>
<clipPath id="clip1">
  <path d="M 84 0 L 116 0 L 116 208.765625 L 84 208.765625 Z M 84 0 "/>
</clipPath>
<clipPath id="clip2">
  <path d="M 412 60 L 475.210938 60 L 475.210938 148 L 412 148 Z M 412 60 "/>
</clipPath>
</defs>
<g id="surface1">
<path style=" stroke:none;fill-rule:nonzero;fill:rgb(94.53125%,72.068787%,0%);fill-opacity:1;" d="M 74.917969 25.191406 L 74.917969 66.023438 L 52.828125 30.6875 L 64.472656 70.023438 L 33.136719 41.132813 L 55.578125 76.121094 L 17.191406 55.878906 L 48.53125 84.714844 L 5.847656 73.96875 L 44.230469 94.261719 L 0 93.960938 L 42.683594 104.707031 L 0 114.804688 L 44.230469 114.804688 L 5.847656 135.097656 L 48.53125 124.351563 L 17.191406 153.1875 L 55.578125 132.945313 L 33.136719 167.933594 L 64.472656 139.09375 L 52.828125 178.378906 L 74.917969 143.042969 L 74.917969 183.574219 L 85.964844 145.542969 C 82.917969 131.597656 81.367188 118.003906 81.367188 104.707031 C 81.367188 91.164063 82.917969 77.46875 85.964844 63.574219 "/>
<g clip-path="url(#clip1)" clip-rule="nonzero">
<path style=" stroke:none;fill-rule:nonzero;fill:rgb(0%,21.556091%,44.700623%);fill-opacity:1;" d="M 100.710938 27.9375 L 98.558594 33.1875 C 94.261719 43.832031 91.0625 53.929688 89.015625 63.574219 C 86.164063 76.21875 84.714844 89.964844 84.714844 104.707031 C 84.714844 119.054688 86.164063 132.648438 89.015625 145.542969 C 91.0625 155.136719 94.261719 165.285156 98.558594 175.929688 L 100.710938 181.128906 C 105.210938 191.175781 110.207031 200.371094 115.753906 208.765625 C 109.40625 195.222656 104.355469 181.726563 100.710938 168.230469 C 94.960938 146.941406 92.113281 125.75 92.113281 104.707031 C 92.113281 83.21875 94.960938 61.925781 100.710938 40.835938 C 104.359375 27.339844 109.40625 13.746094 115.753906 0 C 110.605469 7.996094 105.605469 17.292969 100.710938 27.9375 "/>
</g>
<path style=" stroke:none;fill-rule:nonzero;fill:rgb(0%,21.556091%,44.700623%);fill-opacity:1;" d="M 153.1875 62.625 L 142.441406 62.625 L 142.441406 146.140625 L 153.1875 146.140625 L 153.1875 93.664063 C 153.1875 85.066406 155.238281 78.519531 159.335938 73.96875 C 162.785156 70.320313 167.285156 68.472656 172.828125 68.472656 C 184.078125 68.472656 189.726563 74.921875 189.726563 87.816406 L 189.726563 146.140625 L 200.46875 146.140625 L 200.46875 87.214844 C 200.46875 79.617188 199.121094 73.769531 196.472656 69.671875 C 192.574219 63.726563 185.625 60.777344 175.578125 60.777344 C 166.980469 60.777344 159.636719 64.675781 153.488281 72.472656 L 153.1875 72.472656 "/>
<path style=" stroke:none;fill-rule:nonzero;fill:rgb(0%,21.556091%,44.700623%);fill-opacity:1;" d="M 257.246094 118.503906 C 257.246094 124.25 254.996094 129.148438 250.5 133.246094 C 246.003906 137.542969 240.703125 139.695313 234.554688 139.695313 C 229.207031 139.695313 225.109375 138.042969 222.261719 134.796875 C 221.859375 134.347656 221.5625 133.945313 221.359375 133.546875 C 219.3125 130.695313 218.261719 127 218.261719 122.5 C 218.261719 118.402344 219.3125 115.003906 221.359375 112.355469 C 223.609375 109.105469 227.160156 106.855469 232.105469 105.605469 L 257.246094 103.460938 Z M 225.011719 98.859375 C 223.761719 99.261719 222.5625 99.660156 221.359375 100.109375 C 211.714844 104.15625 206.917969 111.855469 206.917969 123.101563 C 206.917969 130.449219 208.964844 136.394531 213.0625 140.894531 C 215.3125 143.144531 218.0625 144.890625 221.359375 146.140625 C 224.410156 147.191406 227.910156 147.691406 231.757813 147.691406 C 243.203125 147.691406 251.800781 143.691406 257.546875 135.695313 L 257.894531 135.695313 L 257.894531 146.140625 L 269.242188 146.140625 L 267.992188 82.917969 C 267.992188 73.671875 264.394531 67.324219 257.246094 63.875 C 253.148438 61.824219 247.300781 60.777344 239.753906 60.777344 C 232.40625 60.777344 226.257813 62.125 221.359375 64.773438 C 220.511719 65.175781 219.8125 65.574219 219.210938 66.023438 C 213.0625 69.671875 209.765625 75.421875 209.367188 83.21875 L 221.011719 83.21875 C 221.011719 81.96875 221.109375 80.867188 221.359375 79.816406 C 221.960938 76.570313 223.609375 74.019531 226.257813 72.171875 C 229.308594 69.722656 233.507813 68.472656 238.855469 68.472656 C 245.800781 68.472656 250.601563 70.320313 253.25 73.96875 C 255.898438 77.070313 257.246094 81.867188 257.246094 88.414063 L 257.246094 95.460938 "/>
<path style=" stroke:none;fill-rule:nonzero;fill:rgb(0%,21.556091%,44.700623%);fill-opacity:1;" d="M 298.382813 44.53125 L 287.636719 44.53125 L 287.636719 62.625 L 272.890625 62.625 L 272.890625 70.320313 L 287.636719 70.320313 L 287.636719 130.148438 C 287.636719 135.496094 288.984375 139.496094 291.632813 142.144531 C 294.484375 144.792969 299.53125 146.140625 306.675781 146.140625 L 316.824219 145.84375 L 316.824219 137.246094 L 308.226563 137.84375 C 304.128906 137.84375 301.480469 136.945313 300.230469 135.09375 C 298.980469 133.246094 298.382813 129.546875 298.382813 124.050781 L 298.382813 70.320313 L 316.824219 70.320313 L 316.824219 62.625 L 298.382813 62.625 "/>
<path style=" stroke:none;fill-rule:nonzero;fill:rgb(0%,21.556091%,44.700623%);fill-opacity:1;" d="M 325.71875 146.140625 L 337.664063 146.140625 L 337.664063 62.324219 L 325.71875 62.324219 Z M 325.71875 146.140625 "/>
<path style=" stroke:none;fill-rule:nonzero;fill:rgb(0%,21.556091%,44.700623%);fill-opacity:1;" d="M 325.71875 56.777344 L 337.664063 56.777344 L 337.664063 44.53125 L 325.71875 44.53125 Z M 325.71875 56.777344 "/>
<path style=" stroke:none;fill-rule:nonzero;fill:rgb(0%,21.556091%,44.700623%);fill-opacity:1;" d="M 357.007813 62.625 L 345.0625 62.625 L 372.402344 146.140625 L 384.648438 146.140625 L 411.6875 62.625 L 401.539063 62.625 L 379.148438 133.246094 L 378.800781 133.246094 "/>
<g clip-path="url(#clip2)" clip-rule="nonzero">
<path style=" stroke:none;fill-rule:nonzero;fill:rgb(0%,21.556091%,44.700623%);fill-opacity:1;" d="M 440.824219 139.695313 C 435.523438 139.695313 431.328125 138.046875 428.226563 134.796875 C 425.578125 131.699219 424.28125 127.597656 424.28125 122.5 C 424.28125 113.703125 428.878906 108.054688 438.074219 105.605469 L 463.265625 103.457031 L 463.265625 118.503906 C 463.265625 124.25 461.113281 129.148438 456.816406 133.246094 C 452.269531 137.546875 446.96875 139.695313 440.824219 139.695313 M 459.566406 73.96875 C 462.015625 77.070313 463.265625 81.867188 463.265625 88.414063 L 463.265625 95.460938 L 431.027344 98.859375 C 418.933594 102.308594 412.886719 110.40625 412.886719 123.101563 C 412.886719 130.449219 415.035156 136.394531 419.332031 140.894531 C 423.632813 145.441406 429.878906 147.691406 438.074219 147.691406 C 449.519531 147.691406 458.015625 143.691406 463.5625 135.695313 L 464.164063 135.695313 L 464.164063 146.140625 L 475.210938 146.140625 C 474.609375 139.59375 474.308594 132.496094 474.308594 124.949219 L 474.308594 82.917969 C 474.308594 68.171875 464.761719 60.777344 445.722656 60.777344 C 437.175781 60.777344 430.226563 62.523438 424.878906 66.023438 C 418.933594 69.671875 415.78125 75.421875 415.335938 83.214844 L 427.027344 83.214844 C 427.027344 78.269531 428.777344 74.621094 432.226563 72.171875 C 435.273438 69.722656 439.574219 68.472656 445.121094 68.472656 C 451.867188 68.472656 456.71875 70.320313 459.566406 73.96875 "/>
</g>
<path style=" stroke:none;fill-rule:nonzero;fill:rgb(94.53125%,72.068787%,0%);fill-opacity:1;" d="M 345.0625 170.382813 L 349.0625 170.382813 L 350.910156 159.636719 L 361.65625 172.230469 L 364.703125 153.1875 L 361.304688 153.1875 L 359.15625 163.933594 L 348.410156 151.339844 "/>
<path style=" stroke:none;fill-rule:nonzero;fill:rgb(94.53125%,72.068787%,0%);fill-opacity:1;" d="M 399.691406 158.085938 C 400.9375 156.886719 402.339844 156.285156 403.988281 156.285156 C 405.839844 156.285156 407.136719 156.886719 407.984375 158.085938 L 409.234375 159.335938 L 409.835938 155.039063 L 409.835938 154.738281 L 404.289063 153.1875 C 401.636719 153.1875 399.289063 153.988281 397.242188 155.636719 C 394.992188 157.285156 393.742188 159.335938 393.542969 161.785156 L 393.242188 163.035156 C 393.242188 164.882813 393.941406 166.484375 395.390625 167.933594 C 396.839844 169.582031 398.890625 170.382813 401.539063 170.382813 L 407.386719 168.832031 L 407.6875 168.53125 L 408.585938 163.933594 L 406.738281 165.484375 L 401.839844 167.332031 L 398.140625 165.78125 C 397.140625 164.734375 396.742188 163.433594 396.941406 161.785156 L 399.6875 158.085938 "/>
<path style=" stroke:none;fill-rule:nonzero;fill:rgb(94.53125%,72.068787%,0%);fill-opacity:1;" d="M 379.148438 159.335938 L 380.046875 162.683594 L 377.296875 162.683594 Z M 375.148438 165.78125 L 380.945313 165.78125 L 382.195313 170.382813 L 386.195313 170.382813 L 380.347656 151.339844 L 368.402344 170.382813 L 372.398438 170.382813 "/>
<path style=" stroke:none;fill-rule:nonzero;fill:rgb(94.53125%,72.068787%,0%);fill-opacity:1;" d="M 444.222656 157.785156 C 445.472656 158.835938 445.871094 160.035156 445.421875 161.484375 L 442.972656 165.484375 C 441.722656 166.734375 440.222656 167.332031 438.375 167.332031 C 436.726563 167.332031 435.527344 166.832031 434.675781 165.78125 C 433.675781 164.734375 433.277344 163.433594 433.476563 161.785156 L 435.925781 158.085938 C 437.375 156.886719 438.875 156.285156 440.523438 156.285156 C 442.171875 156.285156 443.371094 156.785156 444.222656 157.785156 M 446.972656 155.636719 C 445.722656 153.988281 443.671875 153.1875 440.824219 153.1875 C 438.175781 153.1875 435.824219 153.988281 433.777344 155.636719 C 431.527344 157.285156 430.179688 159.234375 429.777344 161.484375 C 429.378906 163.933594 429.976563 166.085938 431.628906 167.933594 C 433.277344 169.582031 435.425781 170.382813 438.074219 170.382813 L 445.121094 168.230469 L 449.121094 162.085938 C 449.519531 159.636719 448.820313 157.488281 446.972656 155.636719 "/>
<path style=" stroke:none;fill-rule:nonzero;fill:rgb(94.53125%,72.068787%,0%);fill-opacity:1;" d="M 419.980469 153.1875 L 416.882813 170.382813 L 420.582031 170.382813 L 423.328125 153.1875 Z M 419.980469 153.1875 "/>
<path style=" stroke:none;fill-rule:nonzero;fill:rgb(94.53125%,72.068787%,0%);fill-opacity:1;" d="M 474.910156 153.1875 L 471.210938 153.1875 L 469.363281 163.933594 L 458.316406 151.339844 L 455.265625 170.382813 L 458.964844 170.382813 L 460.765625 159.636719 L 471.511719 172.230469 "/>
</g>
</svg>
